<svg id="Layer_1" data-name="Layer 1" xmlns="http://www.w3.org/2000/svg" viewBox="0 0 147.42 176.86"><defs><style>.cls-1{fill:#fff;}.cls-2{fill:#ededed;}.cls-3{fill:#f26822;}.cls-4{fill:#353f46;}.cls-5{fill:#3b464e;}</style></defs><title>milestone3</title><path d="M16.6,118.05c0-3.58.07-6.85,0-10.11-.23-8.57-.57-17.14-.78-25.71a308.72,308.72,0,0,1,.95-32.62,106,106,0,0,1,2.6-17.71A32.72,32.72,0,0,1,36,10.55,62,62,0,0,1,59.85,3.09,79.78,79.78,0,0,1,109,13.3a51.25,51.25,0,0,1,11.61,9.23c4.79,5.07,7.22,11.19,8.12,18a210.29,210.29,0,0,1,1.63,23.78c.37,18.67.49,37.33.72,56,0,.39,0,.78,0,1.23,2.89.75,4.46,3,5.81,5.34a126.2,126.2,0,0,1,7.52,15.69,21.32,21.32,0,0,1,.79,2.58,5.83,5.83,0,0,1-1.41,5.8c-2.88,2.94-5.75,5.89-8.78,8.67a109.09,109.09,0,0,1-13.09,10.16c-1.31.87-2.68,1.65-4,2.52a15.86,15.86,0,0,1-10.17,2.32c-21.32-1.32-42-5.82-62.42-12a209.31,209.31,0,0,1-29.06-11,58.47,58.47,0,0,1-10-5.67,25.66,25.66,0,0,1-3.39-3A3.3,3.3,0,0,1,2.45,139,136.65,136.65,0,0,1,11.68,123C13.06,121,14.37,119,16.6,118.05Zm90.09-54.58c0,.76.09,1.54.14,2.32.3,4.61.79,9.23.85,13.84.21,17.72.29,35.43.41,53.14,0,.85,0,1.7-.08,2.54a13.62,13.62,0,0,1-.31,2c0,.23-.29.41-.49.67-.66-.55-.47-1.21-.47-1.79,0-14.44,0-28.88-.14-43.32-.06-7.05-.35-14.1-.61-21.14-.1-2.7-.42-5.39-.64-8.13-.49-.06-.87-.15-1.26-.16a179.16,179.16,0,0,1-28-3.62A456.64,456.64,0,0,1,19.76,45.13c-.31-.1-.63-.16-1-.27-.11.75-.25,1.42-.3,2.08-.25,2.93-.53,5.85-.69,8.77-.53,9.47-.74,18.94-.52,28.42q.44,18.36.85,36.72c0,.33.05.66.08,1a8.63,8.63,0,0,0,.79.41c9.86,3.85,19.88,7.28,30.08,10.14a260.28,260.28,0,0,0,35.52,7.44,106.55,106.55,0,0,0,14.16,1c4.61,0,9.09-.67,13.2-3A108.32,108.32,0,0,0,127.61,127a5.36,5.36,0,0,0,2.15-4.89c-.3-7-.25-14-.31-21-.1-14.28,0-28.55-.73-42.81-.06-1.28-.15-2.56-.25-4A183.89,183.89,0,0,1,106.69,63.47ZM18.79,43.29c.91.32,1.59.57,2.29.8,14.68,4.76,29.57,8.76,44.63,12.13C78,59,90.3,61.37,102.88,62.14c.71,0,1.42.14,2.35.24-.2-1.53-.35-2.86-.53-4.18a82,82,0,0,0-4.35-17.51,33.41,33.41,0,0,0-16.6-18.58A64.69,64.69,0,0,0,57.52,15a49.13,49.13,0,0,0-28.78,7,8.93,8.93,0,0,1-1.47.51,4.43,4.43,0,0,1,.52-.94,16.15,16.15,0,0,1,4.65-3c2.32-.84,4.62-1.78,7-2.59a44.54,44.54,0,0,1,9.9-2,54.87,54.87,0,0,1,13.49.33,64.74,64.74,0,0,1,23.56,7.87,32.71,32.71,0,0,1,13.93,15.2,71.4,71.4,0,0,1,5.4,18.78c.3,1.93.58,3.87.89,6,7.51-2.64,14.67-5.72,21.74-9,0-.89.06-1.68,0-2.46-.3-3.31-.58-6.63-1-9.93a29.9,29.9,0,0,0-9.45-18.94,56,56,0,0,0-14.47-9.86A80,80,0,0,0,61.5,4.4,61,61,0,0,0,36,12.23,31.47,31.47,0,0,0,25,22.32C20.94,28.66,19.71,35.85,18.79,43.29ZM131,123c.33,2.36-.93,3.87-2.48,5.16a89,89,0,0,1-16.78,11.35,18.48,18.48,0,0,1-4.41,1.65,46.42,46.42,0,0,1-10.59,1,148.71,148.71,0,0,1-24-2.71A265.2,265.2,0,0,1,34,129.32c-4.95-1.7-9.81-3.66-14.71-5.47-1.56-.58-2.44-1.55-2.27-3.3a4.49,4.49,0,0,0-.12-1,6,6,0,0,0-2.57,2.3c-4.1,5.55-7.39,11.59-10.8,17.56a1.6,1.6,0,0,0,.1,1.87A13.19,13.19,0,0,0,7.52,145,69.48,69.48,0,0,0,20,151.75c18,7.94,36.83,13.3,56.07,17.22,6.61,1.34,13.3,2.39,20,3.31,4.57.63,9.2.85,13.81,1.15a6.61,6.61,0,0,0,3.11-.54,57.06,57.06,0,0,0,7-3.65,123.24,123.24,0,0,0,21.9-18,19,19,0,0,0,1.76-2,3.72,3.72,0,0,0,.44-3.8A156.3,156.3,0,0,0,136.51,129a33.07,33.07,0,0,0-2.32-3.72A5,5,0,0,0,131,123Z"/><path class="cls-1" d="M106.74,136.19c0-14.44,0-28.88-.14-43.32-.06-7.05-.35-14.1-.61-21.14-.1-2.7-.42-5.39-.64-8.13-.49-.06-.87-.15-1.26-.16a179.16,179.16,0,0,1-28-3.62A456.64,456.64,0,0,1,19.76,45.13c-.31-.1-.63-.16-1-.27-.11.75-.25,1.42-.3,2.08-.25,2.93-.53,5.85-.69,8.77-.53,9.47-.74,18.94-.52,28.42q.44,18.36.85,36.72c0,.33.05.66.08,1a8.63,8.63,0,0,0,.79.41c9.86,3.85,19.88,7.28,30.08,10.14a260.28,260.28,0,0,0,35.52,7.44,106.55,106.55,0,0,0,14.16,1,30.91,30.91,0,0,0,8.5-1V138C106.55,137.43,106.74,136.77,106.74,136.19Z"/><path class="cls-2" d="M129.76,122.12c-.3-7-.25-14-.31-21-.1-14.28,0-28.55-.73-42.81-.06-1.28-.15-2.56-.25-4a183.89,183.89,0,0,1-21.78,9.17c0,.76.09,1.54.14,2.32.3,4.61.79,9.23.85,13.84.21,17.72.29,35.43.41,53.14,0,.85,0,1.7-.08,2.54a13.62,13.62,0,0,1-.31,2c0,.23-.29.41-.49.67h0v1.82a21.44,21.44,0,0,0,4.7-2A108.32,108.32,0,0,0,127.61,127,5.36,5.36,0,0,0,129.76,122.12Z"/><path class="cls-3" d="M128.3,50.65c-.3-3.31-.58-6.63-1-9.93a29.9,29.9,0,0,0-9.45-18.94,56,56,0,0,0-14.47-9.86A80,80,0,0,0,61.5,4.4,61,61,0,0,0,36,12.23,31.47,31.47,0,0,0,25,22.32a31.36,31.36,0,0,0-2.17,4,27.15,27.15,0,0,1,4.7-4.35,1.06,1.06,0,0,1,.22-.35,16.15,16.15,0,0,1,4.65-3c2.32-.84,4.62-1.78,7-2.59a44.54,44.54,0,0,1,9.9-2,54.87,54.87,0,0,1,13.49.33,64.74,64.74,0,0,1,23.56,7.87,32.71,32.71,0,0,1,13.93,15.2,71.4,71.4,0,0,1,5.4,18.78c.3,1.93.58,3.87.89,6,7.51-2.64,14.67-5.72,21.74-9C128.31,52.22,128.37,51.43,128.3,50.65Z"/><path class="cls-3" d="M22.87,26.29c-2.42,5.31-3.35,11.08-4.08,17,.91.32,1.59.57,2.29.8,14.68,4.76,29.57,8.76,44.63,12.13C78,59,90.3,61.37,102.88,62.14c.71,0,1.42.14,2.35.24-.2-1.53-.35-2.86-.53-4.18a82,82,0,0,0-4.35-17.51,33.41,33.41,0,0,0-16.6-18.58A64.69,64.69,0,0,0,57.52,15a49.13,49.13,0,0,0-28.78,7,8.93,8.93,0,0,1-1.47.51c.14-.26.23-.45.3-.59A27.15,27.15,0,0,0,22.87,26.29Z"/><path class="cls-4" d="M144.1,145.38A156.3,156.3,0,0,0,136.51,129a33.07,33.07,0,0,0-2.32-3.72A5,5,0,0,0,131,123c.33,2.36-.93,3.87-2.48,5.16a89,89,0,0,1-16.78,11.35,18.48,18.48,0,0,1-4.41,1.65l-.51.11c.47.89,1,1.79,1.46,2.72a4.36,4.36,0,0,1,1.22,2.26c.55,2.18,1.11,4.36,1.51,6.57.87,4.64,1.66,9.29,2.42,14a6.28,6.28,0,0,1,0,3,1.46,1.46,0,0,1-.45-.23l.1,3.32a54.47,54.47,0,0,0,7-3.61,123.24,123.24,0,0,0,21.9-18,19,19,0,0,0,1.76-2A3.72,3.72,0,0,0,144.1,145.38Z"/><path class="cls-5" d="M112.44,168.37c-.45-2.55-.84-5.1-1.31-7.64-.91-4.81-1.84-9.6-2.8-14.4a15.34,15.34,0,0,0-.68-1.72,6.18,6.18,0,0,1-.07-1.16,3.87,3.87,0,0,1,.65.51c-.44-.93-1-1.83-1.46-2.72a47.25,47.25,0,0,1-10.08.87,148.71,148.71,0,0,1-24-2.71A265.2,265.2,0,0,1,34,129.32c-4.95-1.7-9.81-3.66-14.71-5.47-1.56-.58-2.44-1.55-2.27-3.3a4.49,4.49,0,0,0-.12-1,6,6,0,0,0-2.57,2.3c-4.1,5.55-7.39,11.59-10.8,17.56a1.6,1.6,0,0,0,.1,1.87A13.19,13.19,0,0,0,7.52,145,69.48,69.48,0,0,0,20,151.75c18,7.94,36.83,13.3,56.07,17.22,6.61,1.34,13.3,2.39,20,3.31,4.57.63,9.2.85,13.81,1.15a6.61,6.61,0,0,0,3.11-.54l.08,0-.1-3.32A1.64,1.64,0,0,1,112.44,168.37Z"/><path d="M107.58,143.45a4.2,4.2,0,0,1,1.87,2.77c.55,2.18,1.11,4.36,1.51,6.57.87,4.64,1.66,9.29,2.42,14a6.28,6.28,0,0,1,0,3c-.83-.28-.87-.87-1-1.39-.45-2.55-.84-5.1-1.31-7.64-.91-4.81-1.84-9.6-2.8-14.4a15.34,15.34,0,0,0-.68-1.72A6.18,6.18,0,0,1,107.58,143.45Z"/></svg>