<?xml version="1.0" encoding="UTF-8"?>
<svg id="Layer_1" data-name="Layer 1" xmlns="http://www.w3.org/2000/svg" viewBox="0 0 136.06 136.06">
  <defs>
    <style>
      .cls-1 {
        fill: #fff;
      }
    </style>
  </defs>
  <path class="cls-1" d="M45.95,73.54H12.22c-6.74,0-12.22-5.48-12.22-12.22V27.59c0-6.74,5.48-12.22,12.22-12.22h33.73c6.74,0,12.22,5.48,12.22,12.22v33.73c0,6.74-5.48,12.22-12.22,12.22ZM12.22,21.35c-3.44,0-6.24,2.8-6.24,6.24v33.73c0,3.44,2.8,6.24,6.24,6.24h33.73c3.44,0,6.24-2.8,6.24-6.24V27.59c0-3.44-2.8-6.24-6.24-6.24H12.22Z"/>
  <path class="cls-1" d="M121.13,73.54h-43.67c-8.24,0-14.94-6.7-14.94-14.94V14.94c0-8.24,6.7-14.94,14.94-14.94h58.61v58.61c0,8.24-6.7,14.94-14.94,14.94ZM77.46,5.98c-4.94,0-8.96,4.02-8.96,8.96v43.67c0,4.94,4.02,8.96,8.96,8.96h43.67c4.94,0,8.96-4.02,8.96-8.96V5.98h-52.63Z"/>
  <path class="cls-1" d="M45.95,136.06H12.22c-6.74,0-12.22-5.48-12.22-12.22v-33.73c0-6.74,5.48-12.22,12.22-12.22h33.73c6.74,0,12.22,5.48,12.22,12.22v33.73c0,6.74-5.48,12.22-12.22,12.22ZM12.22,83.87c-3.44,0-6.24,2.8-6.24,6.24v33.73c0,3.44,2.8,6.24,6.24,6.24h33.73c3.44,0,6.24-2.8,6.24-6.24v-33.73c0-3.44-2.8-6.24-6.24-6.24H12.22Z"/>
  <path class="cls-1" d="M108.47,136.06h-33.73c-6.74,0-12.22-5.48-12.22-12.22v-33.73c0-6.74,5.48-12.22,12.22-12.22h33.73c6.74,0,12.22,5.48,12.22,12.22v33.73c0,6.74-5.48,12.22-12.22,12.22ZM74.74,83.87c-3.44,0-6.24,2.8-6.24,6.24v33.73c0,3.44,2.8,6.24,6.24,6.24h33.73c3.44,0,6.24-2.8,6.24-6.24v-33.73c0-3.44-2.8-6.24-6.24-6.24h-33.73Z"/>
</svg>