<?xml version="1.0" encoding="utf-8"?>
<!-- Generator: Adobe Illustrator 26.0.0, SVG Export Plug-In . SVG Version: 6.00 Build 0)  -->
<svg version="1.1" id="Layer_1" xmlns="http://www.w3.org/2000/svg" xmlns:xlink="http://www.w3.org/1999/xlink" x="0px" y="0px"
	 viewBox="0 0 202.1 177.2" style="enable-background:new 0 0 202.1 177.2;" xml:space="preserve">
<style type="text/css">
	.st0{fill:#3C199C;}
	.st1{fill:#FF9A00;}
	.st2{fill:#FF6300;}
	.st3{fill:#FFFFFF;}
	.st4{fill:none;stroke:#FF6300;stroke-width:14.65;stroke-linejoin:round;}
</style>
<g>
	<g>
		<path class="st0" d="M171.1,20.1c0,2.6-2.1,4.6-4.7,4.6s-4.6-2.1-4.6-4.7s2.1-4.6,4.7-4.6C169.1,15.4,171.1,17.5,171.1,20.1
			L171.1,20.1z"/>
		<path class="st0" d="M177.9,29c0,1.8-1.5,3.2-3.2,3.2s-3.2-1.5-3.2-3.2c0-1.8,1.5-3.2,3.2-3.2C176.5,25.8,178,27.2,177.9,29
			L177.9,29z"/>
		<path class="st0" d="M183.4,39.2c0,1.6-1.3,2.9-2.9,2.9s-2.9-1.3-2.9-2.9c0-1.6,1.3-2.9,2.9-2.9C182.2,36.3,183.5,37.6,183.4,39.2
			z"/>
	</g>
	<g>
		<path class="st1" d="M182.3,80.8c0,0,13.3-1.5,15.5-2.3s4.1-2.3,3.3-4.7c-0.8-2.3-2.8-2.1-6.6-1.3s-10.3,2.2-12.5,3.5
			s-2.3,2.1-2,3.3C180.2,80.7,182.3,80.8,182.3,80.8L182.3,80.8z"/>
		<path class="st2" d="M183,101.7c0,0,8,8.6,9.7,9.7c1.6,1.1,3.6,1.6,4.8-0.2c1.2-1.8,0-3.1-2.4-5.2c-2.5-2.2-6.8-6.1-8.9-7.1
			c-2.1-0.9-2.7-0.6-3.5,0.3S183,101.7,183,101.7z"/>
		<path class="st3" d="M179.2,89.7c0,0,15.4,5.3,17.7,5.7c2.3,0.4,4.7-0.1,5.1-2.6c0.4-2.4-1.5-3.2-5.2-4.2s-13.1-3.3-15.7-3.2
			c-2.6,0.1-3,0.7-3.4,2S179.2,89.7,179.2,89.7L179.2,89.7z"/>
	</g>
	<path class="st2" d="M132.2,164c0,0,6.1-5.5,7.7-4.4s2.1,4.6-2.5,7.7c-4.6,3.1-8.1,3.4-8.9,1.2c-2.3-5.9-3.1-4-3.1-4
		s-0.9,2.7-3,4.2s-5.3,5-8.7-0.1c-2.4-3.5-2.7-1.3-2.7-1.3s-1.3,10.2-4.7,9.9c-3.3-0.3-6.3-4-6.4-6.7c-0.1-2.7,1.4-2.2,1.9-1.2
		c0.5,1,3.6,5.5,4.2,3.2c0.6-2.3,0.3-9.7,2.6-11.4s3.9,0.4,5.9,3s3.6,3.9,5.1,2.1c1.6-1.8,3.9-10.6,6.5-8.2
		C128.8,160.5,130,165.7,132.2,164L132.2,164z"/>
	<path class="st3" d="M38.1,12.7c0,0,1.5-5.9,3-5.9c1.5,0,3.2,2,1.6,5.8S39.1,18,37.6,17c-3.8-2.7-3.6-1.2-3.6-1.2s0.5,2.1-0.1,3.9
		c-0.7,1.8-1.2,5.3-5.5,3.5c-2.9-1.2-2.2,0.3-2.2,0.3s3.4,6.9,1.2,8.1c-2.2,1.2-5.6,0.1-6.7-1.5c-1.2-1.6,0-1.9,0.7-1.5
		c0.7,0.4,4.5,1.9,3.9,0.2c-0.6-1.7-3.8-6.2-3.1-8.2s2.6-1.4,4.9-0.6c2.4,0.8,3.8,1,4.1-0.8s-2-8.2,0.6-7.8
		C34.5,11.9,37.4,14.6,38.1,12.7L38.1,12.7z"/>
</g>
<g>
	<path class="st2" d="M98.6,0C55.2,0,20.1,35.2,20.1,78.5c0,2.7,0.1,5.4,0.4,8.1c-2.8,5.6-4.3,11.8-4.3,18.4
		c0,21.1,15.9,38.5,36.4,41l18.5,26.1c1.6,2.3,3.5,1.9,4.2-0.8l4.3-16.6c6.1,1.5,12.4,2.3,19,2.3c43.4,0,78.5-35.2,78.5-78.5
		S142,0,98.6,0z"/>
	<g>
		<path class="st3" d="M44.4,45.5c-0.4,0-0.8-0.1-1.2-0.3c-1.2-0.6-1.6-2.1-1-3.3c0.2-0.4,21-38.1,64.1-31.5
			c1.3,0.2,2.2,1.4,2.1,2.8s-1.4,2.2-2.8,2.1c-39.7-6-58.2,27.6-59,29C46.1,45,45.3,45.4,44.4,45.5L44.4,45.5z"/>
		<path class="st3" d="M120.8,14.8c0,1.7-1.4,3.2-3.2,3.2s-3.2-1.4-3.2-3.2s1.4-3.2,3.2-3.2S120.8,13,120.8,14.8z"/>
	</g>
	<g>
		<path class="st3" d="M147.4,123.5c0.4,0.1,0.8,0.2,1.1,0.4c1.1,0.8,1.3,2.3,0.5,3.4c-0.2,0.3-26,34.8-67.8,22.4
			c-1.3-0.4-2-1.7-1.7-3c0.4-1.3,1.7-2,3-1.6c38.4,11.4,61.5-19.3,62.5-20.6C145.6,123.7,146.5,123.4,147.4,123.5L147.4,123.5z"/>
		<path class="st3" d="M67.4,143.3c0.2-1.7,1.8-2.9,3.6-2.7s2.9,1.8,2.7,3.6c-0.2,1.7-1.8,2.9-3.6,2.7S67.2,145.1,67.4,143.3z"/>
	</g>
</g>
<g>
	<g>
		<path class="st3" d="M18.5,71.3l-2.1,0.4l2.1,11.2c0.3,1.5,0.2,2.6-0.2,3.4s-1.1,1.3-2,1.4c-1,0.2-1.8-0.1-2.4-0.7
			s-1.1-1.7-1.4-3.1l-5-26.8c-0.3-1.5-0.2-2.7,0.2-3.5s1.3-1.3,2.6-1.5l9.8-1.8c1.4-0.2,2.5-0.4,3.5-0.4c1,0,1.9,0.1,2.7,0.3
			c1,0.3,2,0.8,2.8,1.5c0.9,0.7,1.6,1.6,2.2,2.7c0.6,1.1,1,2.2,1.2,3.5c0.5,2.6,0.2,4.8-0.7,6.6c-1,1.8-2.6,3.2-5,4.4
			c1.2,0.5,2.4,1.3,3.6,2.4c1.2,1.1,2.3,2.3,3.4,3.7c1,1.3,1.9,2.5,2.5,3.6c0.6,1.1,1,1.9,1.1,2.3c0.1,0.5,0,0.9-0.1,1.4
			c-0.2,0.5-0.4,0.9-0.8,1.3c-0.4,0.3-0.9,0.6-1.4,0.7c-0.7,0.1-1.3,0-1.8-0.2c-0.5-0.3-1-0.7-1.5-1.2c-0.4-0.5-1-1.3-1.8-2.3
			l-3.3-4.2c-1.2-1.6-2.2-2.7-3-3.5c-0.9-0.8-1.6-1.3-2.4-1.5C20.5,71.1,19.6,71.1,18.5,71.3L18.5,71.3z M19.2,56l-5.5,1l1.8,9.6
			l5.4-1c1.4-0.3,2.6-0.6,3.5-1.1c0.9-0.5,1.6-1.1,2-1.9s0.5-1.8,0.2-3c-0.2-1-0.5-1.8-1.1-2.4c-0.5-0.7-1.2-1.1-2-1.3
			C22.7,55.5,21.3,55.6,19.2,56L19.2,56z"/>
		<path class="st3" d="M54.2,68.6l-10.8,2c0.3,1.5,0.8,2.7,1.5,3.8s1.5,1.8,2.4,2.2c0.9,0.4,1.9,0.5,2.8,0.3
			c0.7-0.1,1.2-0.3,1.8-0.6s1-0.7,1.4-1.2c0.4-0.5,0.8-1,1.2-1.5c0.3-0.5,0.8-1.2,1.3-2.1c0.2-0.3,0.6-0.6,1.1-0.7
			c0.6-0.1,1.1,0,1.5,0.3c0.4,0.3,0.7,0.8,0.8,1.4c0.1,0.6,0,1.3-0.2,2.2c-0.2,0.9-0.7,1.7-1.3,2.6c-0.7,0.9-1.5,1.7-2.6,2.3
			c-1.1,0.7-2.4,1.2-4,1.5c-3.5,0.7-6.5,0-8.9-2c-2.4-2-4-5.1-4.8-9.1c-0.4-1.9-0.5-3.7-0.3-5.5c0.2-1.7,0.6-3.3,1.3-4.6
			c0.7-1.3,1.7-2.5,2.9-3.3s2.7-1.5,4.3-1.8c2.2-0.4,4.1-0.2,5.8,0.6s3.2,2,4.2,3.5c1.1,1.5,1.8,3.2,2.1,5c0.3,1.6,0.1,2.8-0.6,3.4
			C56.8,67.9,55.7,68.4,54.2,68.6z M42.8,67l10-1.9c-0.5-2.2-1.4-3.8-2.5-4.7c-1.1-0.9-2.3-1.3-3.8-1c-1.4,0.3-2.4,1-3.1,2.3
			C42.8,63,42.6,64.8,42.8,67z"/>
		<path class="st3" d="M63.7,55.8L70,69.6l0.8-14.1c0.1-1.5,0.2-2.5,0.2-3s0.3-1.1,0.7-1.7c0.4-0.5,1-0.9,1.8-1.1
			c0.8-0.2,1.5,0,2.1,0.3c0.6,0.4,1,0.8,1.3,1.3s0.7,1.4,1.3,2.7L83.9,67l0.9-15.2c0.1-1.1,0.1-1.9,0.2-2.4c0.1-0.5,0.2-1,0.5-1.4
			c0.3-0.4,0.8-0.7,1.4-0.8s1.3,0,1.9,0.5c0.6,0.5,0.9,1,1.1,1.8c0.1,0.7,0.1,1.7-0.1,3.1L88.2,69c-0.2,1.4-0.3,2.4-0.4,3
			s-0.3,1.2-0.7,1.8c-0.4,0.6-1,0.9-1.8,1c-0.8,0.2-1.5,0-2.1-0.4s-1-0.9-1.4-1.6c-0.4-0.7-0.8-1.6-1.3-2.6l-5.5-12l-0.7,13.2
			c-0.1,1.8-0.3,3.2-0.6,4.2c-0.3,1-1.1,1.6-2.2,1.8c-0.6,0.1-1.2,0.1-1.6-0.1c-0.5-0.2-0.9-0.5-1.3-1s-0.7-1-1.1-1.7
			c-0.3-0.7-0.6-1.2-0.8-1.6l-7.4-14.7c-0.7-1.4-1.1-2.3-1.2-2.9c-0.1-0.7,0-1.4,0.4-2s0.9-1,1.6-1.2c0.9-0.2,1.6,0,2,0.6
			S63.1,54.3,63.7,55.8L63.7,55.8z"/>
		<path class="st3" d="M110.1,66.4c-1.1,1.5-2.2,2.6-3.3,3.5s-2.5,1.4-4,1.7c-1.4,0.3-2.7,0.2-3.9-0.3s-2.2-1.2-3-2.2
			s-1.3-2.2-1.6-3.5c-0.3-1.8-0.1-3.4,0.6-4.8c0.7-1.4,1.9-2.5,3.5-3.2c0.3-0.2,1.2-0.5,2.5-1.1s2.5-1.1,3.4-1.6
			c0.9-0.5,1.9-1,3-1.6c-0.4-1.7-0.9-2.9-1.6-3.6c-0.7-0.7-1.8-0.9-3.4-0.6c-1.4,0.3-2.4,0.7-3,1.3c-0.6,0.6-1.1,1.4-1.4,2.4
			c-0.3,1-0.6,1.7-0.7,2c-0.2,0.3-0.6,0.6-1.3,0.7c-0.6,0.1-1.2,0-1.7-0.4s-0.9-0.9-1-1.7c-0.2-1.1-0.1-2.3,0.4-3.5
			c0.5-1.2,1.4-2.3,2.7-3.3c1.3-1,3.1-1.7,5.2-2.1c2.4-0.5,4.4-0.5,5.9-0.1s2.7,1.3,3.5,2.6c0.8,1.3,1.5,3.2,1.9,5.6
			c0.3,1.5,0.5,2.8,0.7,3.9s0.4,2.2,0.6,3.5c0.2,1.2,0.6,2.5,1.2,3.7c0.6,1.3,0.9,2.1,1,2.5c0.1,0.7,0,1.3-0.5,2s-1,1-1.7,1.2
			c-0.6,0.1-1.2-0.1-1.8-0.6C111.7,68.3,111,67.5,110.1,66.4L110.1,66.4z M108,57.1c-0.7,0.5-1.8,1.1-3.3,1.8
			c-1.5,0.7-2.5,1.2-3,1.5s-1.1,0.8-1.5,1.4s-0.6,1.4-0.4,2.4c0.2,1,0.7,1.8,1.4,2.3c0.8,0.6,1.7,0.8,2.7,0.6c1.1-0.2,2-0.7,2.9-1.4
			c0.8-0.7,1.4-1.6,1.6-2.5c0.3-1.1,0.3-2.7-0.2-5L108,57.1L108,57.1z"/>
		<path class="st3" d="M124.6,57.8l1,5.4c0.2,1.3,0.2,2.4-0.2,3.1c-0.4,0.8-1,1.2-1.8,1.4c-0.8,0.2-1.5-0.1-2.1-0.6
			c-0.6-0.6-1.1-1.5-1.3-2.8l-3.4-18c-0.5-2.9,0.1-4.5,1.9-4.9c0.9-0.2,1.6,0,2.2,0.7c0.5,0.6,0.9,1.6,1.2,2.9
			c0.4-1.5,0.9-2.6,1.5-3.4c0.6-0.8,1.4-1.3,2.6-1.5s2.3-0.1,3.6,0.4s1.9,1.3,2.1,2.4c0.1,0.8,0,1.5-0.3,2.1s-0.8,1-1.4,1
			c-0.2,0-0.7,0-1.5-0.2c-0.8-0.2-1.5-0.2-2.1-0.1c-0.8,0.2-1.4,0.5-1.8,1.1c-0.4,0.6-0.7,1.4-0.8,2.4c-0.1,1-0.1,2.2,0.1,3.6
			S124.2,55.9,124.6,57.8L124.6,57.8z"/>
		<path class="st3" d="M151.6,58.6l-0.1-0.6c-0.6,1.1-1.1,2.1-1.7,2.8c-0.6,0.8-1.3,1.4-2.1,1.9c-0.8,0.5-1.7,0.8-2.7,1
			c-1.3,0.2-2.6,0.2-3.9-0.3s-2.4-1.2-3.4-2.3c-1.1-1.1-1.9-2.4-2.7-4s-1.3-3.3-1.6-5.2c-0.8-4-0.5-7.4,0.8-10
			c1.3-2.6,3.3-4.1,6-4.6c1.6-0.3,3-0.2,4.2,0.2c1.2,0.4,2.5,1.2,3.7,2.4l-1.8-9.6c-0.2-1.3-0.2-2.4,0.1-3.1
			c0.3-0.8,0.9-1.2,1.7-1.4c0.8-0.2,1.5,0,2.1,0.6c0.6,0.5,1,1.4,1.2,2.6l5.3,28.6c0.2,1.2,0.2,2.2-0.2,2.9
			c-0.4,0.7-0.9,1.1-1.7,1.3c-0.8,0.1-1.4-0.1-2.1-0.6S151.8,59.8,151.6,58.6L151.6,58.6z M139,51.1c0.3,1.8,0.8,3.2,1.5,4.4
			c0.7,1.2,1.5,2,2.4,2.4c0.9,0.5,1.9,0.6,2.8,0.4c1-0.2,1.8-0.6,2.5-1.4c0.7-0.7,1.2-1.8,1.4-3.1s0.2-2.9-0.1-4.7
			c-0.3-1.7-0.8-3.2-1.6-4.3c-0.7-1.2-1.5-2-2.5-2.5c-0.9-0.5-1.9-0.7-2.9-0.5c-1,0.2-1.9,0.7-2.5,1.5s-1.1,1.9-1.3,3.2
			C138.7,47.9,138.7,49.4,139,51.1L139,51.1z"/>
		<path class="st3" d="M178.6,48.6c0.3,1.8,0.2,3.4-0.2,4.8s-1.4,2.6-2.7,3.5c-1.3,0.9-3,1.6-5.1,2c-2,0.4-3.7,0.3-5.3-0.1
			c-1.6-0.5-2.8-1.1-3.6-2.1c-0.9-0.9-1.4-2-1.6-3c-0.1-0.7,0-1.4,0.3-2c0.3-0.6,0.8-0.9,1.5-1.1c0.6-0.1,1.1,0,1.4,0.2
			c0.4,0.3,0.8,0.7,1.1,1.2c0.8,1,1.6,1.8,2.5,2.2s2,0.5,3.4,0.2c1.1-0.2,1.9-0.7,2.6-1.4s0.8-1.4,0.7-2.2c-0.2-1.1-0.7-1.9-1.6-2.3
			s-2.1-0.7-3.9-0.8c-2-0.2-3.6-0.5-5-0.9c-1.3-0.4-2.4-1-3.3-1.9c-0.9-0.9-1.5-2-1.8-3.5c-0.2-1.3-0.1-2.6,0.3-3.9s1.2-2.4,2.4-3.3
			c1.2-0.9,2.6-1.6,4.5-1.9c1.4-0.3,2.7-0.3,3.9-0.2c1.2,0.1,2.2,0.4,3.1,0.9s1.6,1,2.1,1.6c0.5,0.6,0.9,1.3,1,2
			c0.1,0.7,0,1.4-0.3,2c-0.3,0.5-0.9,0.9-1.7,1c-0.6,0.1-1.1,0-1.6-0.3c-0.5-0.3-1-0.8-1.7-1.5c-0.5-0.5-1.1-1-1.8-1.2
			c-0.6-0.3-1.4-0.3-2.4-0.1c-1,0.2-1.8,0.6-2.3,1.2c-0.6,0.6-0.8,1.3-0.6,2c0.1,0.7,0.5,1.2,1,1.5c0.6,0.3,1.3,0.6,2.2,0.7
			c0.9,0.1,2.1,0.3,3.6,0.4c1.8,0.2,3.3,0.5,4.5,1s2.2,1.1,2.9,2C177.9,46.4,178.4,47.4,178.6,48.6L178.6,48.6z"/>
		<path class="st3" d="M52.9,90.4c3.1-0.6,5.8-0.3,8.3,0.7s4.5,2.8,6.2,5.3c1.6,2.5,2.8,5.6,3.5,9.2c0.5,2.7,0.7,5.2,0.4,7.5
			c-0.2,2.3-0.8,4.4-1.7,6.2c-0.9,1.8-2.2,3.4-3.9,4.6c-1.6,1.2-3.6,2-6,2.4c-2.3,0.4-4.5,0.4-6.5-0.2c-2-0.5-3.8-1.5-5.3-2.9
			c-1.5-1.4-2.8-3.1-3.8-5.2c-1-2.1-1.8-4.5-2.3-7.1c-0.5-2.7-0.6-5.2-0.4-7.5c0.2-2.3,0.8-4.4,1.8-6.2s2.2-3.3,3.8-4.4
			S50.7,90.8,52.9,90.4L52.9,90.4z M64.8,106.7c-0.5-2.6-1.2-4.7-2.3-6.4s-2.3-3-3.8-3.7S55.6,95.7,54,96c-1.2,0.2-2.2,0.7-3.2,1.4
			s-1.7,1.7-2.2,2.8c-0.5,1.2-0.9,2.6-1,4.2c-0.1,1.7,0,3.5,0.4,5.4c0.4,2,0.9,3.7,1.6,5.2s1.6,2.7,2.5,3.6c1,0.9,2,1.5,3.1,1.9
			c1.1,0.3,2.2,0.4,3.5,0.2c1.5-0.3,2.9-1,4-2.1s1.9-2.7,2.3-4.8C65.4,111.9,65.3,109.5,64.8,106.7L64.8,106.7z"/>
		<path class="st3" d="M73.1,97.2l1.3-0.2L74.1,95c-0.4-2-0.5-3.7-0.2-4.9c0.2-1.3,0.8-2.3,1.7-3s2.3-1.3,4.1-1.6
			c3.2-0.6,5,0,5.3,1.9c0.1,0.6,0,1.2-0.2,1.6s-0.6,0.8-1.1,0.9c-0.2,0-0.6,0.1-1.1,0.1c-0.5,0-1,0-1.4,0.1c-1,0.2-1.6,0.7-1.7,1.4
			s-0.1,1.8,0.1,3l0.3,1.5l1.3-0.2c2.1-0.4,3.3,0.2,3.6,1.7c0.2,1.1,0,1.8-0.5,2.2c-0.5,0.4-1.2,0.7-2.2,0.9l-1.3,0.2l3.2,17.2
			c0.2,1.3,0.2,2.3-0.2,3.1c-0.4,0.8-1,1.2-1.8,1.4c-0.8,0.2-1.5-0.1-2.1-0.7c-0.6-0.6-1.1-1.5-1.3-2.8l-3.2-17.2l-1.5,0.3
			c-0.8,0.2-1.5,0.1-2-0.3c-0.5-0.3-0.8-0.9-1-1.6C70.5,98.5,71.3,97.6,73.1,97.2z"/>
		<path class="st3" d="M87.8,94.5l1.3-0.2l-0.4-1.9c-0.4-2-0.5-3.7-0.2-4.9c0.2-1.3,0.8-2.3,1.7-3s2.3-1.3,4.1-1.6
			c3.2-0.6,5,0,5.3,1.9c0.1,0.6,0,1.2-0.2,1.6s-0.6,0.8-1.1,0.9c-0.2,0-0.6,0.1-1.1,0.1c-0.5,0-1,0-1.4,0.1c-1,0.2-1.6,0.7-1.7,1.4
			s-0.1,1.8,0.1,3l0.3,1.5L96,93c2.1-0.4,3.3,0.2,3.6,1.7c0.2,1.1,0,1.8-0.5,2.2c-0.5,0.4-1.2,0.7-2.2,0.9l-1.3,0.2l3.2,17.2
			c0.2,1.3,0.2,2.3-0.2,3.1s-1,1.2-1.8,1.4c-0.8,0.2-1.5-0.1-2.1-0.6c-0.6-0.6-1.1-1.5-1.3-2.8L90,98.9l-1.5,0.3
			c-0.8,0.2-1.5,0.1-2-0.3c-0.5-0.3-0.8-0.9-1-1.6C85.2,95.8,86,94.8,87.8,94.5L87.8,94.5z"/>
		<path class="st3" d="M118.9,103.4l-10.8,2c0.3,1.5,0.8,2.7,1.5,3.8c0.7,1,1.5,1.8,2.4,2.2s1.9,0.5,2.8,0.3
			c0.7-0.1,1.2-0.3,1.8-0.6s1-0.7,1.4-1.2c0.4-0.5,0.8-1,1.2-1.5c0.3-0.5,0.8-1.2,1.3-2.1c0.2-0.3,0.6-0.6,1.1-0.7
			c0.6-0.1,1.1,0,1.5,0.3c0.4,0.3,0.7,0.8,0.8,1.4c0.1,0.6,0,1.3-0.2,2.2c-0.2,0.9-0.7,1.7-1.3,2.6c-0.7,0.9-1.5,1.7-2.6,2.3
			s-2.4,1.2-4,1.5c-3.5,0.7-6.5,0-8.9-2c-2.4-2-4-5.1-4.8-9.1c-0.4-1.9-0.4-3.7-0.3-5.5s0.6-3.3,1.3-4.6c0.7-1.3,1.7-2.5,2.9-3.3
			s2.7-1.5,4.3-1.8c2.2-0.4,4.1-0.2,5.8,0.6c1.7,0.8,3.2,1.9,4.2,3.5c1.1,1.6,1.8,3.2,2.1,5c0.3,1.6,0.1,2.8-0.6,3.4
			S120.3,103.1,118.9,103.4L118.9,103.4z M107.4,101.7l10-1.9c-0.6-2.2-1.4-3.8-2.4-4.7c-1.1-0.9-2.3-1.3-3.8-1
			c-1.4,0.3-2.4,1-3.1,2.3S107.2,99.5,107.4,101.7z"/>
		<path class="st3" d="M133.3,103l1,5.4c0.2,1.3,0.2,2.3-0.2,3.1c-0.4,0.8-1,1.2-1.8,1.4c-0.8,0.2-1.5-0.1-2.1-0.6
			c-0.6-0.6-1.1-1.5-1.3-2.8l-3.4-18.1c-0.5-2.9,0.1-4.5,1.9-4.9c0.9-0.2,1.6,0.1,2.2,0.7c0.5,0.6,0.9,1.6,1.2,2.9
			c0.4-1.4,0.9-2.6,1.5-3.4c0.6-0.8,1.4-1.3,2.6-1.5s2.3-0.1,3.6,0.4c1.2,0.5,1.9,1.3,2.1,2.4c0.1,0.8,0,1.5-0.3,2.1
			s-0.8,0.9-1.4,1.1c-0.2,0-0.7,0-1.6-0.2s-1.5-0.2-2.1-0.1c-0.8,0.2-1.4,0.5-1.8,1.1c-0.4,0.6-0.7,1.4-0.8,2.4
			c-0.1,1-0.1,2.2,0.1,3.6C132.7,99.3,132.9,101,133.3,103L133.3,103z"/>
		<path class="st3" d="M162.2,98.5c0.3,1.8,0.2,3.4-0.2,4.8s-1.4,2.6-2.7,3.5c-1.3,0.9-3,1.6-5.1,2c-2,0.4-3.7,0.3-5.3-0.1
			c-1.6-0.4-2.8-1.1-3.6-2.1c-0.9-0.9-1.4-1.9-1.6-3c-0.1-0.7,0-1.4,0.3-1.9c0.3-0.6,0.8-0.9,1.5-1.1c0.6-0.1,1.1,0,1.4,0.2
			s0.8,0.7,1.1,1.2c0.8,1.1,1.6,1.8,2.5,2.2s2,0.5,3.4,0.2c1.1-0.2,2-0.7,2.6-1.4c0.6-0.7,0.8-1.4,0.7-2.2c-0.2-1.1-0.7-1.9-1.6-2.3
			s-2.1-0.7-3.9-0.8c-2-0.2-3.6-0.5-5-0.9c-1.3-0.4-2.4-1-3.3-1.9s-1.5-2-1.8-3.5c-0.2-1.3-0.1-2.6,0.3-3.9c0.4-1.3,1.2-2.4,2.4-3.3
			c1.2-0.9,2.6-1.6,4.5-1.9c1.4-0.3,2.7-0.3,3.9-0.2c1.2,0.1,2.2,0.4,3.1,0.9s1.6,1,2.1,1.6c0.5,0.6,0.9,1.3,1,2
			c0.1,0.7,0,1.4-0.3,1.9c-0.3,0.6-0.9,0.9-1.7,1.1c-0.6,0.1-1.1,0-1.6-0.3c-0.5-0.3-1-0.8-1.7-1.5c-0.5-0.6-1.1-1-1.8-1.2
			s-1.4-0.3-2.4-0.1c-1,0.2-1.8,0.6-2.3,1.2c-0.6,0.6-0.8,1.3-0.6,2.1c0.1,0.7,0.5,1.2,1,1.5c0.6,0.3,1.3,0.6,2.2,0.7
			c0.9,0.1,2.1,0.3,3.6,0.4c1.8,0.2,3.3,0.5,4.5,1s2.2,1.1,2.9,1.9C161.5,96.3,162,97.3,162.2,98.5L162.2,98.5z"/>
	</g>
	<g>
		<path class="st4" d="M18.5,71.3l-2.1,0.4l2.1,11.2c0.3,1.5,0.2,2.6-0.2,3.4s-1.1,1.3-2,1.4c-1,0.2-1.8-0.1-2.4-0.7
			s-1.1-1.7-1.4-3.1l-5-26.8c-0.3-1.5-0.2-2.7,0.2-3.5s1.3-1.3,2.6-1.5l9.8-1.8c1.4-0.2,2.5-0.4,3.5-0.4c1,0,1.9,0.1,2.7,0.3
			c1,0.3,2,0.8,2.8,1.5c0.9,0.7,1.6,1.6,2.2,2.7c0.6,1.1,1,2.2,1.2,3.5c0.5,2.6,0.2,4.8-0.7,6.6c-1,1.8-2.6,3.2-5,4.4
			c1.2,0.5,2.4,1.3,3.6,2.4c1.2,1.1,2.3,2.3,3.4,3.7c1,1.3,1.9,2.5,2.5,3.6c0.6,1.1,1,1.9,1.1,2.3c0.1,0.5,0,0.9-0.1,1.4
			c-0.2,0.5-0.4,0.9-0.8,1.3c-0.4,0.3-0.9,0.6-1.4,0.7c-0.7,0.1-1.3,0-1.8-0.2c-0.5-0.3-1-0.7-1.5-1.2c-0.4-0.5-1-1.3-1.8-2.3
			l-3.3-4.2c-1.2-1.6-2.2-2.7-3-3.5c-0.9-0.8-1.6-1.3-2.4-1.5C20.5,71.1,19.6,71.1,18.5,71.3L18.5,71.3z M19.2,56l-5.5,1l1.8,9.6
			l5.4-1c1.4-0.3,2.6-0.6,3.5-1.1c0.9-0.5,1.6-1.1,2-1.9s0.5-1.8,0.2-3c-0.2-1-0.5-1.8-1.1-2.4c-0.5-0.7-1.2-1.1-2-1.3
			C22.7,55.5,21.3,55.6,19.2,56L19.2,56z"/>
		<path class="st4" d="M54.2,68.6l-10.8,2c0.3,1.5,0.8,2.7,1.5,3.8s1.5,1.8,2.4,2.2c0.9,0.4,1.9,0.5,2.8,0.3
			c0.7-0.1,1.2-0.3,1.8-0.6s1-0.7,1.4-1.2c0.4-0.5,0.8-1,1.2-1.5c0.3-0.5,0.8-1.2,1.3-2.1c0.2-0.3,0.6-0.6,1.1-0.7
			c0.6-0.1,1.1,0,1.5,0.3c0.4,0.3,0.7,0.8,0.8,1.4c0.1,0.6,0,1.3-0.2,2.2c-0.2,0.9-0.7,1.7-1.3,2.6c-0.7,0.9-1.5,1.7-2.6,2.3
			c-1.1,0.7-2.4,1.2-4,1.5c-3.5,0.7-6.5,0-8.9-2c-2.4-2-4-5.1-4.8-9.1c-0.4-1.9-0.5-3.7-0.3-5.5c0.2-1.7,0.6-3.3,1.3-4.6
			c0.7-1.3,1.7-2.5,2.9-3.3s2.7-1.5,4.3-1.8c2.2-0.4,4.1-0.2,5.8,0.6s3.2,2,4.2,3.5c1.1,1.5,1.8,3.2,2.1,5c0.3,1.6,0.1,2.8-0.6,3.4
			C56.8,67.9,55.7,68.4,54.2,68.6z M42.8,67l10-1.9c-0.5-2.2-1.4-3.8-2.5-4.7c-1.1-0.9-2.3-1.3-3.8-1c-1.4,0.3-2.4,1-3.1,2.3
			C42.8,63,42.6,64.8,42.8,67z"/>
		<path class="st4" d="M63.7,55.8L70,69.6l0.8-14.1c0.1-1.5,0.2-2.5,0.2-3s0.3-1.1,0.7-1.7c0.4-0.5,1-0.9,1.8-1.1
			c0.8-0.2,1.5,0,2.1,0.3c0.6,0.4,1,0.8,1.3,1.3s0.7,1.4,1.3,2.7L83.9,67l0.9-15.2c0.1-1.1,0.1-1.9,0.2-2.4c0.1-0.5,0.2-1,0.5-1.4
			c0.3-0.4,0.8-0.7,1.4-0.8s1.3,0,1.9,0.5c0.6,0.5,0.9,1,1.1,1.8c0.1,0.7,0.1,1.7-0.1,3.1L88.2,69c-0.2,1.4-0.3,2.4-0.4,3
			s-0.3,1.2-0.7,1.8c-0.4,0.6-1,0.9-1.8,1c-0.8,0.2-1.5,0-2.1-0.4s-1-0.9-1.4-1.6c-0.4-0.7-0.8-1.6-1.3-2.6l-5.5-12l-0.7,13.2
			c-0.1,1.8-0.3,3.2-0.6,4.2c-0.3,1-1.1,1.6-2.2,1.8c-0.6,0.1-1.2,0.1-1.6-0.1c-0.5-0.2-0.9-0.5-1.3-1s-0.7-1-1.1-1.7
			c-0.3-0.7-0.6-1.2-0.8-1.6l-7.4-14.7c-0.7-1.4-1.1-2.3-1.2-2.9c-0.1-0.7,0-1.4,0.4-2s0.9-1,1.6-1.2c0.9-0.2,1.6,0,2,0.6
			S63.1,54.3,63.7,55.8L63.7,55.8z"/>
		<path class="st4" d="M110.1,66.4c-1.1,1.5-2.2,2.6-3.3,3.5s-2.5,1.4-4,1.7c-1.4,0.3-2.7,0.2-3.9-0.3s-2.2-1.2-3-2.2
			s-1.3-2.2-1.6-3.5c-0.3-1.8-0.1-3.4,0.6-4.8c0.7-1.4,1.9-2.5,3.5-3.2c0.3-0.2,1.2-0.5,2.5-1.1s2.5-1.1,3.4-1.6
			c0.9-0.5,1.9-1,3-1.6c-0.4-1.7-0.9-2.9-1.6-3.6c-0.7-0.7-1.8-0.9-3.4-0.6c-1.4,0.3-2.4,0.7-3,1.3c-0.6,0.6-1.1,1.4-1.4,2.4
			c-0.3,1-0.6,1.7-0.7,2c-0.2,0.3-0.6,0.6-1.3,0.7c-0.6,0.1-1.2,0-1.7-0.4s-0.9-0.9-1-1.7c-0.2-1.1-0.1-2.3,0.4-3.5
			c0.5-1.2,1.4-2.3,2.7-3.3c1.3-1,3.1-1.7,5.2-2.1c2.4-0.5,4.4-0.5,5.9-0.1s2.7,1.3,3.5,2.6c0.8,1.3,1.5,3.2,1.9,5.6
			c0.3,1.5,0.5,2.8,0.7,3.9s0.4,2.2,0.6,3.5c0.2,1.2,0.6,2.5,1.2,3.7c0.6,1.3,0.9,2.1,1,2.5c0.1,0.7,0,1.3-0.5,2s-1,1-1.7,1.2
			c-0.6,0.1-1.2-0.1-1.8-0.6C111.7,68.3,111,67.5,110.1,66.4L110.1,66.4z M108,57.1c-0.7,0.5-1.8,1.1-3.3,1.8
			c-1.5,0.7-2.5,1.2-3,1.5s-1.1,0.8-1.5,1.4s-0.6,1.4-0.4,2.4c0.2,1,0.7,1.8,1.4,2.3c0.8,0.6,1.7,0.8,2.7,0.6c1.1-0.2,2-0.7,2.9-1.4
			c0.8-0.7,1.4-1.6,1.6-2.5c0.3-1.1,0.3-2.7-0.2-5L108,57.1L108,57.1z"/>
		<path class="st4" d="M124.6,57.8l1,5.4c0.2,1.3,0.2,2.4-0.2,3.1c-0.4,0.8-1,1.2-1.8,1.4c-0.8,0.2-1.5-0.1-2.1-0.6
			c-0.6-0.6-1.1-1.5-1.3-2.8l-3.4-18c-0.5-2.9,0.1-4.5,1.9-4.9c0.9-0.2,1.6,0,2.2,0.7c0.5,0.6,0.9,1.6,1.2,2.9
			c0.4-1.5,0.9-2.6,1.5-3.4c0.6-0.8,1.4-1.3,2.6-1.5s2.3-0.1,3.6,0.4s1.9,1.3,2.1,2.4c0.1,0.8,0,1.5-0.3,2.1s-0.8,1-1.4,1
			c-0.2,0-0.7,0-1.5-0.2c-0.8-0.2-1.5-0.2-2.1-0.1c-0.8,0.2-1.4,0.5-1.8,1.1c-0.4,0.6-0.7,1.4-0.8,2.4c-0.1,1-0.1,2.2,0.1,3.6
			S124.2,55.9,124.6,57.8L124.6,57.8z"/>
		<path class="st4" d="M151.6,58.6l-0.1-0.6c-0.6,1.1-1.1,2.1-1.7,2.8c-0.6,0.8-1.3,1.4-2.1,1.9c-0.8,0.5-1.7,0.8-2.7,1
			c-1.3,0.2-2.6,0.2-3.9-0.3s-2.4-1.2-3.4-2.3c-1.1-1.1-1.9-2.4-2.7-4s-1.3-3.3-1.6-5.2c-0.8-4-0.5-7.4,0.8-10
			c1.3-2.6,3.3-4.1,6-4.6c1.6-0.3,3-0.2,4.2,0.2c1.2,0.4,2.5,1.2,3.7,2.4l-1.8-9.6c-0.2-1.3-0.2-2.4,0.1-3.1
			c0.3-0.8,0.9-1.2,1.7-1.4c0.8-0.2,1.5,0,2.1,0.6c0.6,0.5,1,1.4,1.2,2.6l5.3,28.6c0.2,1.2,0.2,2.2-0.2,2.9
			c-0.4,0.7-0.9,1.1-1.7,1.3c-0.8,0.1-1.4-0.1-2.1-0.6S151.8,59.8,151.6,58.6L151.6,58.6z M139,51.1c0.3,1.8,0.8,3.2,1.5,4.4
			c0.7,1.2,1.5,2,2.4,2.4c0.9,0.5,1.9,0.6,2.8,0.4c1-0.2,1.8-0.6,2.5-1.4c0.7-0.7,1.2-1.8,1.4-3.1s0.2-2.9-0.1-4.7
			c-0.3-1.7-0.8-3.2-1.6-4.3c-0.7-1.2-1.5-2-2.5-2.5c-0.9-0.5-1.9-0.7-2.9-0.5c-1,0.2-1.9,0.7-2.5,1.5s-1.1,1.9-1.3,3.2
			C138.7,47.9,138.7,49.4,139,51.1L139,51.1z"/>
		<path class="st4" d="M178.6,48.6c0.3,1.8,0.2,3.4-0.2,4.8s-1.4,2.6-2.7,3.5c-1.3,0.9-3,1.6-5.1,2c-2,0.4-3.7,0.3-5.3-0.1
			c-1.6-0.5-2.8-1.1-3.6-2.1c-0.9-0.9-1.4-2-1.6-3c-0.1-0.7,0-1.4,0.3-2c0.3-0.6,0.8-0.9,1.5-1.1c0.6-0.1,1.1,0,1.4,0.2
			c0.4,0.3,0.8,0.7,1.1,1.2c0.8,1,1.6,1.8,2.5,2.2s2,0.5,3.4,0.2c1.1-0.2,1.9-0.7,2.6-1.4s0.8-1.4,0.7-2.2c-0.2-1.1-0.7-1.9-1.6-2.3
			s-2.1-0.7-3.9-0.8c-2-0.2-3.6-0.5-5-0.9c-1.3-0.4-2.4-1-3.3-1.9c-0.9-0.9-1.5-2-1.8-3.5c-0.2-1.3-0.1-2.6,0.3-3.9s1.2-2.4,2.4-3.3
			c1.2-0.9,2.6-1.6,4.5-1.9c1.4-0.3,2.7-0.3,3.9-0.2c1.2,0.1,2.2,0.4,3.1,0.9s1.6,1,2.1,1.6c0.5,0.6,0.9,1.3,1,2
			c0.1,0.7,0,1.4-0.3,2c-0.3,0.5-0.9,0.9-1.7,1c-0.6,0.1-1.1,0-1.6-0.3c-0.5-0.3-1-0.8-1.7-1.5c-0.5-0.5-1.1-1-1.8-1.2
			c-0.6-0.3-1.4-0.3-2.4-0.1c-1,0.2-1.8,0.6-2.3,1.2c-0.6,0.6-0.8,1.3-0.6,2c0.1,0.7,0.5,1.2,1,1.5c0.6,0.3,1.3,0.6,2.2,0.7
			c0.9,0.1,2.1,0.3,3.6,0.4c1.8,0.2,3.3,0.5,4.5,1s2.2,1.1,2.9,2C177.9,46.4,178.4,47.4,178.6,48.6L178.6,48.6z"/>
		<path class="st4" d="M52.9,90.4c3.1-0.6,5.8-0.3,8.3,0.7s4.5,2.8,6.2,5.3c1.6,2.5,2.8,5.6,3.5,9.2c0.5,2.7,0.7,5.2,0.4,7.5
			c-0.2,2.3-0.8,4.4-1.7,6.2c-0.9,1.8-2.2,3.4-3.9,4.6c-1.6,1.2-3.6,2-6,2.4c-2.3,0.4-4.5,0.4-6.5-0.2c-2-0.5-3.8-1.5-5.3-2.9
			c-1.5-1.4-2.8-3.1-3.8-5.2c-1-2.1-1.8-4.5-2.3-7.1c-0.5-2.7-0.6-5.2-0.4-7.5c0.2-2.3,0.8-4.4,1.8-6.2s2.2-3.3,3.8-4.4
			S50.7,90.8,52.9,90.4L52.9,90.4z M64.8,106.7c-0.5-2.6-1.2-4.7-2.3-6.4s-2.3-3-3.8-3.7S55.6,95.7,54,96c-1.2,0.2-2.2,0.7-3.2,1.4
			s-1.7,1.7-2.2,2.8c-0.5,1.2-0.9,2.6-1,4.2c-0.1,1.7,0,3.5,0.4,5.4c0.4,2,0.9,3.7,1.6,5.2s1.6,2.7,2.5,3.6c1,0.9,2,1.5,3.1,1.9
			c1.1,0.3,2.2,0.4,3.5,0.2c1.5-0.3,2.9-1,4-2.1s1.9-2.7,2.3-4.8C65.4,111.9,65.3,109.5,64.8,106.7L64.8,106.7z"/>
		<path class="st4" d="M73.1,97.2l1.3-0.2L74.1,95c-0.4-2-0.5-3.7-0.2-4.9c0.2-1.3,0.8-2.3,1.7-3s2.3-1.3,4.1-1.6
			c3.2-0.6,5,0,5.3,1.9c0.1,0.6,0,1.2-0.2,1.6s-0.6,0.8-1.1,0.9c-0.2,0-0.6,0.1-1.1,0.1c-0.5,0-1,0-1.4,0.1c-1,0.2-1.6,0.7-1.7,1.4
			s-0.1,1.8,0.1,3l0.3,1.5l1.3-0.2c2.1-0.4,3.3,0.2,3.6,1.7c0.2,1.1,0,1.8-0.5,2.2c-0.5,0.4-1.2,0.7-2.2,0.9l-1.3,0.2l3.2,17.2
			c0.2,1.3,0.2,2.3-0.2,3.1c-0.4,0.8-1,1.2-1.8,1.4c-0.8,0.2-1.5-0.1-2.1-0.7c-0.6-0.6-1.1-1.5-1.3-2.8l-3.2-17.2l-1.5,0.3
			c-0.8,0.2-1.5,0.1-2-0.3c-0.5-0.3-0.8-0.9-1-1.6C70.5,98.5,71.3,97.6,73.1,97.2z"/>
		<path class="st4" d="M87.8,94.5l1.3-0.2l-0.4-1.9c-0.4-2-0.5-3.7-0.2-4.9c0.2-1.3,0.8-2.3,1.7-3s2.3-1.3,4.1-1.6
			c3.2-0.6,5,0,5.3,1.9c0.1,0.6,0,1.2-0.2,1.6s-0.6,0.8-1.1,0.9c-0.2,0-0.6,0.1-1.1,0.1c-0.5,0-1,0-1.4,0.1c-1,0.2-1.6,0.7-1.7,1.4
			s-0.1,1.8,0.1,3l0.3,1.5L96,93c2.1-0.4,3.3,0.2,3.6,1.7c0.2,1.1,0,1.8-0.5,2.2c-0.5,0.4-1.2,0.7-2.2,0.9l-1.3,0.2l3.2,17.2
			c0.2,1.3,0.2,2.3-0.2,3.1s-1,1.2-1.8,1.4c-0.8,0.2-1.5-0.1-2.1-0.6c-0.6-0.6-1.1-1.5-1.3-2.8L90,98.9l-1.5,0.3
			c-0.8,0.2-1.5,0.1-2-0.3c-0.5-0.3-0.8-0.9-1-1.6C85.2,95.8,86,94.8,87.8,94.5L87.8,94.5z"/>
		<path class="st4" d="M118.9,103.4l-10.8,2c0.3,1.5,0.8,2.7,1.5,3.8c0.7,1,1.5,1.8,2.4,2.2s1.9,0.5,2.8,0.3
			c0.7-0.1,1.2-0.3,1.8-0.6s1-0.7,1.4-1.2c0.4-0.5,0.8-1,1.2-1.5c0.3-0.5,0.8-1.2,1.3-2.1c0.2-0.3,0.6-0.6,1.1-0.7
			c0.6-0.1,1.1,0,1.5,0.3c0.4,0.3,0.7,0.8,0.8,1.4c0.1,0.6,0,1.3-0.2,2.2c-0.2,0.9-0.7,1.7-1.3,2.6c-0.7,0.9-1.5,1.7-2.6,2.3
			s-2.4,1.2-4,1.5c-3.5,0.7-6.5,0-8.9-2c-2.4-2-4-5.1-4.8-9.1c-0.4-1.9-0.4-3.7-0.3-5.5s0.6-3.3,1.3-4.6c0.7-1.3,1.7-2.5,2.9-3.3
			s2.7-1.5,4.3-1.8c2.2-0.4,4.1-0.2,5.8,0.6c1.7,0.8,3.2,1.9,4.2,3.5c1.1,1.6,1.8,3.2,2.1,5c0.3,1.6,0.1,2.8-0.6,3.4
			S120.3,103.1,118.9,103.4L118.9,103.4z M107.4,101.7l10-1.9c-0.6-2.2-1.4-3.8-2.4-4.7c-1.1-0.9-2.3-1.3-3.8-1
			c-1.4,0.3-2.4,1-3.1,2.3S107.2,99.5,107.4,101.7z"/>
		<path class="st4" d="M133.3,103l1,5.4c0.2,1.3,0.2,2.3-0.2,3.1c-0.4,0.8-1,1.2-1.8,1.4c-0.8,0.2-1.5-0.1-2.1-0.6
			c-0.6-0.6-1.1-1.5-1.3-2.8l-3.4-18.1c-0.5-2.9,0.1-4.5,1.9-4.9c0.9-0.2,1.6,0.1,2.2,0.7c0.5,0.6,0.9,1.6,1.2,2.9
			c0.4-1.4,0.9-2.6,1.5-3.4c0.6-0.8,1.4-1.3,2.6-1.5s2.3-0.1,3.6,0.4c1.2,0.5,1.9,1.3,2.1,2.4c0.1,0.8,0,1.5-0.3,2.1
			s-0.8,0.9-1.4,1.1c-0.2,0-0.7,0-1.6-0.2s-1.5-0.2-2.1-0.1c-0.8,0.2-1.4,0.5-1.8,1.1c-0.4,0.6-0.7,1.4-0.8,2.4
			c-0.1,1-0.1,2.2,0.1,3.6C132.7,99.3,132.9,101,133.3,103L133.3,103z"/>
		<path class="st4" d="M162.2,98.5c0.3,1.8,0.2,3.4-0.2,4.8s-1.4,2.6-2.7,3.5c-1.3,0.9-3,1.6-5.1,2c-2,0.4-3.7,0.3-5.3-0.1
			c-1.6-0.4-2.8-1.1-3.6-2.1c-0.9-0.9-1.4-1.9-1.6-3c-0.1-0.7,0-1.4,0.3-1.9c0.3-0.6,0.8-0.9,1.5-1.1c0.6-0.1,1.1,0,1.4,0.2
			s0.8,0.7,1.1,1.2c0.8,1.1,1.6,1.8,2.5,2.2s2,0.5,3.4,0.2c1.1-0.2,2-0.7,2.6-1.4c0.6-0.7,0.8-1.4,0.7-2.2c-0.2-1.1-0.7-1.9-1.6-2.3
			s-2.1-0.7-3.9-0.8c-2-0.2-3.6-0.5-5-0.9c-1.3-0.4-2.4-1-3.3-1.9s-1.5-2-1.8-3.5c-0.2-1.3-0.1-2.6,0.3-3.9c0.4-1.3,1.2-2.4,2.4-3.3
			c1.2-0.9,2.6-1.6,4.5-1.9c1.4-0.3,2.7-0.3,3.9-0.2c1.2,0.1,2.2,0.4,3.1,0.9s1.6,1,2.1,1.6c0.5,0.6,0.9,1.3,1,2
			c0.1,0.7,0,1.4-0.3,1.9c-0.3,0.6-0.9,0.9-1.7,1.1c-0.6,0.1-1.1,0-1.6-0.3c-0.5-0.3-1-0.8-1.7-1.5c-0.5-0.6-1.1-1-1.8-1.2
			s-1.4-0.3-2.4-0.1c-1,0.2-1.8,0.6-2.3,1.2c-0.6,0.6-0.8,1.3-0.6,2.1c0.1,0.7,0.5,1.2,1,1.5c0.6,0.3,1.3,0.6,2.2,0.7
			c0.9,0.1,2.1,0.3,3.6,0.4c1.8,0.2,3.3,0.5,4.5,1s2.2,1.1,2.9,1.9C161.5,96.3,162,97.3,162.2,98.5L162.2,98.5z"/>
	</g>
	<g>
		<path class="st3" d="M18.5,71.3l-2.1,0.4l2.1,11.2c0.3,1.5,0.2,2.6-0.2,3.4s-1.1,1.3-2,1.4c-1,0.2-1.8-0.1-2.4-0.7
			s-1.1-1.7-1.4-3.1l-5-26.8c-0.3-1.5-0.2-2.7,0.2-3.5s1.3-1.3,2.6-1.5l9.8-1.8c1.4-0.2,2.5-0.4,3.5-0.4c1,0,1.9,0.1,2.7,0.3
			c1,0.3,2,0.8,2.8,1.5c0.9,0.7,1.6,1.6,2.2,2.7c0.6,1.1,1,2.2,1.2,3.5c0.5,2.6,0.2,4.8-0.7,6.6c-1,1.8-2.6,3.2-5,4.4
			c1.2,0.5,2.4,1.3,3.6,2.4c1.2,1.1,2.3,2.3,3.4,3.7c1,1.3,1.9,2.5,2.5,3.6c0.6,1.1,1,1.9,1.1,2.3c0.1,0.5,0,0.9-0.1,1.4
			c-0.2,0.5-0.4,0.9-0.8,1.3c-0.4,0.3-0.9,0.6-1.4,0.7c-0.7,0.1-1.3,0-1.8-0.2c-0.5-0.3-1-0.7-1.5-1.2c-0.4-0.5-1-1.3-1.8-2.3
			l-3.3-4.2c-1.2-1.6-2.2-2.7-3-3.5c-0.9-0.8-1.6-1.3-2.4-1.5C20.5,71.1,19.6,71.1,18.5,71.3L18.5,71.3z M19.2,56l-5.5,1l1.8,9.6
			l5.4-1c1.4-0.3,2.6-0.6,3.5-1.1c0.9-0.5,1.6-1.1,2-1.9s0.5-1.8,0.2-3c-0.2-1-0.5-1.8-1.1-2.4c-0.5-0.7-1.2-1.1-2-1.3
			C22.7,55.5,21.3,55.6,19.2,56L19.2,56z"/>
		<path class="st3" d="M54.2,68.6l-10.8,2c0.3,1.5,0.8,2.7,1.5,3.8s1.5,1.8,2.4,2.2c0.9,0.4,1.9,0.5,2.8,0.3
			c0.7-0.1,1.2-0.3,1.8-0.6s1-0.7,1.4-1.2c0.4-0.5,0.8-1,1.2-1.5c0.3-0.5,0.8-1.2,1.3-2.1c0.2-0.3,0.6-0.6,1.1-0.7
			c0.6-0.1,1.1,0,1.5,0.3c0.4,0.3,0.7,0.8,0.8,1.4c0.1,0.6,0,1.3-0.2,2.2c-0.2,0.9-0.7,1.7-1.3,2.6c-0.7,0.9-1.5,1.7-2.6,2.3
			c-1.1,0.7-2.4,1.2-4,1.5c-3.5,0.7-6.5,0-8.9-2c-2.4-2-4-5.1-4.8-9.1c-0.4-1.9-0.5-3.7-0.3-5.5c0.2-1.7,0.6-3.3,1.3-4.6
			c0.7-1.3,1.7-2.5,2.9-3.3s2.7-1.5,4.3-1.8c2.2-0.4,4.1-0.2,5.8,0.6s3.2,2,4.2,3.5c1.1,1.5,1.8,3.2,2.1,5c0.3,1.6,0.1,2.8-0.6,3.4
			C56.8,67.9,55.7,68.4,54.2,68.6z M42.8,67l10-1.9c-0.5-2.2-1.4-3.8-2.5-4.7c-1.1-0.9-2.3-1.3-3.8-1c-1.4,0.3-2.4,1-3.1,2.3
			C42.8,63,42.6,64.8,42.8,67z"/>
		<path class="st3" d="M63.7,55.8L70,69.6l0.8-14.1c0.1-1.5,0.2-2.5,0.2-3s0.3-1.1,0.7-1.7c0.4-0.5,1-0.9,1.8-1.1
			c0.8-0.2,1.5,0,2.1,0.3c0.6,0.4,1,0.8,1.3,1.3s0.7,1.4,1.3,2.7L83.9,67l0.9-15.2c0.1-1.1,0.1-1.9,0.2-2.4c0.1-0.5,0.2-1,0.5-1.4
			c0.3-0.4,0.8-0.7,1.4-0.8s1.3,0,1.9,0.5c0.6,0.5,0.9,1,1.1,1.8c0.1,0.7,0.1,1.7-0.1,3.1L88.2,69c-0.2,1.4-0.3,2.4-0.4,3
			s-0.3,1.2-0.7,1.8c-0.4,0.6-1,0.9-1.8,1c-0.8,0.2-1.5,0-2.1-0.4s-1-0.9-1.4-1.6c-0.4-0.7-0.8-1.6-1.3-2.6l-5.5-12l-0.7,13.2
			c-0.1,1.8-0.3,3.2-0.6,4.2c-0.3,1-1.1,1.6-2.2,1.8c-0.6,0.1-1.2,0.1-1.6-0.1c-0.5-0.2-0.9-0.5-1.3-1s-0.7-1-1.1-1.7
			c-0.3-0.7-0.6-1.2-0.8-1.6l-7.4-14.7c-0.7-1.4-1.1-2.3-1.2-2.9c-0.1-0.7,0-1.4,0.4-2s0.9-1,1.6-1.2c0.9-0.2,1.6,0,2,0.6
			S63.1,54.3,63.7,55.8L63.7,55.8z"/>
		<path class="st3" d="M110.1,66.4c-1.1,1.5-2.2,2.6-3.3,3.5s-2.5,1.4-4,1.7c-1.4,0.3-2.7,0.2-3.9-0.3s-2.2-1.2-3-2.2
			s-1.3-2.2-1.6-3.5c-0.3-1.8-0.1-3.4,0.6-4.8c0.7-1.4,1.9-2.5,3.5-3.2c0.3-0.2,1.2-0.5,2.5-1.1s2.5-1.1,3.4-1.6
			c0.9-0.5,1.9-1,3-1.6c-0.4-1.7-0.9-2.9-1.6-3.6c-0.7-0.7-1.8-0.9-3.4-0.6c-1.4,0.3-2.4,0.7-3,1.3c-0.6,0.6-1.1,1.4-1.4,2.4
			c-0.3,1-0.6,1.7-0.7,2c-0.2,0.3-0.6,0.6-1.3,0.7c-0.6,0.1-1.2,0-1.7-0.4s-0.9-0.9-1-1.7c-0.2-1.1-0.1-2.3,0.4-3.5
			c0.5-1.2,1.4-2.3,2.7-3.3c1.3-1,3.1-1.7,5.2-2.1c2.4-0.5,4.4-0.5,5.9-0.1s2.7,1.3,3.5,2.6c0.8,1.3,1.5,3.2,1.9,5.6
			c0.3,1.5,0.5,2.8,0.7,3.9s0.4,2.2,0.6,3.5c0.2,1.2,0.6,2.5,1.2,3.7c0.6,1.3,0.9,2.1,1,2.5c0.1,0.7,0,1.3-0.5,2s-1,1-1.7,1.2
			c-0.6,0.1-1.2-0.1-1.8-0.6C111.7,68.3,111,67.5,110.1,66.4L110.1,66.4z M108,57.1c-0.7,0.5-1.8,1.1-3.3,1.8
			c-1.5,0.7-2.5,1.2-3,1.5s-1.1,0.8-1.5,1.4s-0.6,1.4-0.4,2.4c0.2,1,0.7,1.8,1.4,2.3c0.8,0.6,1.7,0.8,2.7,0.6c1.1-0.2,2-0.7,2.9-1.4
			c0.8-0.7,1.4-1.6,1.6-2.5c0.3-1.1,0.3-2.7-0.2-5L108,57.1L108,57.1z"/>
		<path class="st3" d="M124.6,57.8l1,5.4c0.2,1.3,0.2,2.4-0.2,3.1c-0.4,0.8-1,1.2-1.8,1.4c-0.8,0.2-1.5-0.1-2.1-0.6
			c-0.6-0.6-1.1-1.5-1.3-2.8l-3.4-18c-0.5-2.9,0.1-4.5,1.9-4.9c0.9-0.2,1.6,0,2.2,0.7c0.5,0.6,0.9,1.6,1.2,2.9
			c0.4-1.5,0.9-2.6,1.5-3.4c0.6-0.8,1.4-1.3,2.6-1.5s2.3-0.1,3.6,0.4s1.9,1.3,2.1,2.4c0.1,0.8,0,1.5-0.3,2.1s-0.8,1-1.4,1
			c-0.2,0-0.7,0-1.5-0.2c-0.8-0.2-1.5-0.2-2.1-0.1c-0.8,0.2-1.4,0.5-1.8,1.1c-0.4,0.6-0.7,1.4-0.8,2.4c-0.1,1-0.1,2.2,0.1,3.6
			S124.2,55.9,124.6,57.8L124.6,57.8z"/>
		<path class="st3" d="M151.6,58.6l-0.1-0.6c-0.6,1.1-1.1,2.1-1.7,2.8c-0.6,0.8-1.3,1.4-2.1,1.9c-0.8,0.5-1.7,0.8-2.7,1
			c-1.3,0.2-2.6,0.2-3.9-0.3s-2.4-1.2-3.4-2.3c-1.1-1.1-1.9-2.4-2.7-4s-1.3-3.3-1.6-5.2c-0.8-4-0.5-7.4,0.8-10
			c1.3-2.6,3.3-4.1,6-4.6c1.6-0.3,3-0.2,4.2,0.2c1.2,0.4,2.5,1.2,3.7,2.4l-1.8-9.6c-0.2-1.3-0.2-2.4,0.1-3.1
			c0.3-0.8,0.9-1.2,1.7-1.4c0.8-0.2,1.5,0,2.1,0.6c0.6,0.5,1,1.4,1.2,2.6l5.3,28.6c0.2,1.2,0.2,2.2-0.2,2.9
			c-0.4,0.7-0.9,1.1-1.7,1.3c-0.8,0.1-1.4-0.1-2.1-0.6S151.8,59.8,151.6,58.6L151.6,58.6z M139,51.1c0.3,1.8,0.8,3.2,1.5,4.4
			c0.7,1.2,1.5,2,2.4,2.4c0.9,0.5,1.9,0.6,2.8,0.4c1-0.2,1.8-0.6,2.5-1.4c0.7-0.7,1.2-1.8,1.4-3.1s0.2-2.9-0.1-4.7
			c-0.3-1.7-0.8-3.2-1.6-4.3c-0.7-1.2-1.5-2-2.5-2.5c-0.9-0.5-1.9-0.7-2.9-0.5c-1,0.2-1.9,0.7-2.5,1.5s-1.1,1.9-1.3,3.2
			C138.7,47.9,138.7,49.4,139,51.1L139,51.1z"/>
		<path class="st3" d="M178.6,48.6c0.3,1.8,0.2,3.4-0.2,4.8s-1.4,2.6-2.7,3.5c-1.3,0.9-3,1.6-5.1,2c-2,0.4-3.7,0.3-5.3-0.1
			c-1.6-0.5-2.8-1.1-3.6-2.1c-0.9-0.9-1.4-2-1.6-3c-0.1-0.7,0-1.4,0.3-2c0.3-0.6,0.8-0.9,1.5-1.1c0.6-0.1,1.1,0,1.4,0.2
			c0.4,0.3,0.8,0.7,1.1,1.2c0.8,1,1.6,1.8,2.5,2.2s2,0.5,3.4,0.2c1.1-0.2,1.9-0.7,2.6-1.4s0.8-1.4,0.7-2.2c-0.2-1.1-0.7-1.9-1.6-2.3
			s-2.1-0.7-3.9-0.8c-2-0.2-3.6-0.5-5-0.9c-1.3-0.4-2.4-1-3.3-1.9c-0.9-0.9-1.5-2-1.8-3.5c-0.2-1.3-0.1-2.6,0.3-3.9s1.2-2.4,2.4-3.3
			c1.2-0.9,2.6-1.6,4.5-1.9c1.4-0.3,2.7-0.3,3.9-0.2c1.2,0.1,2.2,0.4,3.1,0.9s1.6,1,2.1,1.6c0.5,0.6,0.9,1.3,1,2
			c0.1,0.7,0,1.4-0.3,2c-0.3,0.5-0.9,0.9-1.7,1c-0.6,0.1-1.1,0-1.6-0.3c-0.5-0.3-1-0.8-1.7-1.5c-0.5-0.5-1.1-1-1.8-1.2
			c-0.6-0.3-1.4-0.3-2.4-0.1c-1,0.2-1.8,0.6-2.3,1.2c-0.6,0.6-0.8,1.3-0.6,2c0.1,0.7,0.5,1.2,1,1.5c0.6,0.3,1.3,0.6,2.2,0.7
			c0.9,0.1,2.1,0.3,3.6,0.4c1.8,0.2,3.3,0.5,4.5,1s2.2,1.1,2.9,2C177.9,46.4,178.4,47.4,178.6,48.6L178.6,48.6z"/>
		<path class="st3" d="M52.9,90.4c3.1-0.6,5.8-0.3,8.3,0.7s4.5,2.8,6.2,5.3c1.6,2.5,2.8,5.6,3.5,9.2c0.5,2.7,0.7,5.2,0.4,7.5
			c-0.2,2.3-0.8,4.4-1.7,6.2c-0.9,1.8-2.2,3.4-3.9,4.6c-1.6,1.2-3.6,2-6,2.4c-2.3,0.4-4.5,0.4-6.5-0.2c-2-0.5-3.8-1.5-5.3-2.9
			c-1.5-1.4-2.8-3.1-3.8-5.2c-1-2.1-1.8-4.5-2.3-7.1c-0.5-2.7-0.6-5.2-0.4-7.5c0.2-2.3,0.8-4.4,1.8-6.2s2.2-3.3,3.8-4.4
			S50.7,90.8,52.9,90.4L52.9,90.4z M64.8,106.7c-0.5-2.6-1.2-4.7-2.3-6.4s-2.3-3-3.8-3.7S55.6,95.7,54,96c-1.2,0.2-2.2,0.7-3.2,1.4
			s-1.7,1.7-2.2,2.8c-0.5,1.2-0.9,2.6-1,4.2c-0.1,1.7,0,3.5,0.4,5.4c0.4,2,0.9,3.7,1.6,5.2s1.6,2.7,2.5,3.6c1,0.9,2,1.5,3.1,1.9
			c1.1,0.3,2.2,0.4,3.5,0.2c1.5-0.3,2.9-1,4-2.1s1.9-2.7,2.3-4.8C65.4,111.9,65.3,109.5,64.8,106.7L64.8,106.7z"/>
		<path class="st3" d="M73.1,97.2l1.3-0.2L74.1,95c-0.4-2-0.5-3.7-0.2-4.9c0.2-1.3,0.8-2.3,1.7-3s2.3-1.3,4.1-1.6
			c3.2-0.6,5,0,5.3,1.9c0.1,0.6,0,1.2-0.2,1.6s-0.6,0.8-1.1,0.9c-0.2,0-0.6,0.1-1.1,0.1c-0.5,0-1,0-1.4,0.1c-1,0.2-1.6,0.7-1.7,1.4
			s-0.1,1.8,0.1,3l0.3,1.5l1.3-0.2c2.1-0.4,3.3,0.2,3.6,1.7c0.2,1.1,0,1.8-0.5,2.2c-0.5,0.4-1.2,0.7-2.2,0.9l-1.3,0.2l3.2,17.2
			c0.2,1.3,0.2,2.3-0.2,3.1c-0.4,0.8-1,1.2-1.8,1.4c-0.8,0.2-1.5-0.1-2.1-0.7c-0.6-0.6-1.1-1.5-1.3-2.8l-3.2-17.2l-1.5,0.3
			c-0.8,0.2-1.5,0.1-2-0.3c-0.5-0.3-0.8-0.9-1-1.6C70.5,98.5,71.3,97.6,73.1,97.2z"/>
		<path class="st3" d="M87.8,94.5l1.3-0.2l-0.4-1.9c-0.4-2-0.5-3.7-0.2-4.9c0.2-1.3,0.8-2.3,1.7-3s2.3-1.3,4.1-1.6
			c3.2-0.6,5,0,5.3,1.9c0.1,0.6,0,1.2-0.2,1.6s-0.6,0.8-1.1,0.9c-0.2,0-0.6,0.1-1.1,0.1c-0.5,0-1,0-1.4,0.1c-1,0.2-1.6,0.7-1.7,1.4
			s-0.1,1.8,0.1,3l0.3,1.5L96,93c2.1-0.4,3.3,0.2,3.6,1.7c0.2,1.1,0,1.8-0.5,2.2c-0.5,0.4-1.2,0.7-2.2,0.9l-1.3,0.2l3.2,17.2
			c0.2,1.3,0.2,2.3-0.2,3.1s-1,1.2-1.8,1.4c-0.8,0.2-1.5-0.1-2.1-0.6c-0.6-0.6-1.1-1.5-1.3-2.8L90,98.9l-1.5,0.3
			c-0.8,0.2-1.5,0.1-2-0.3c-0.5-0.3-0.8-0.9-1-1.6C85.2,95.8,86,94.8,87.8,94.5L87.8,94.5z"/>
		<path class="st3" d="M118.9,103.4l-10.8,2c0.3,1.5,0.8,2.7,1.5,3.8c0.7,1,1.5,1.8,2.4,2.2s1.9,0.5,2.8,0.3
			c0.7-0.1,1.2-0.3,1.8-0.6s1-0.7,1.4-1.2c0.4-0.5,0.8-1,1.2-1.5c0.3-0.5,0.8-1.2,1.3-2.1c0.2-0.3,0.6-0.6,1.1-0.7
			c0.6-0.1,1.1,0,1.5,0.3c0.4,0.3,0.7,0.8,0.8,1.4c0.1,0.6,0,1.3-0.2,2.2c-0.2,0.9-0.7,1.7-1.3,2.6c-0.7,0.9-1.5,1.7-2.6,2.3
			s-2.4,1.2-4,1.5c-3.5,0.7-6.5,0-8.9-2c-2.4-2-4-5.1-4.8-9.1c-0.4-1.9-0.4-3.7-0.3-5.5s0.6-3.3,1.3-4.6c0.7-1.3,1.7-2.5,2.9-3.3
			s2.7-1.5,4.3-1.8c2.2-0.4,4.1-0.2,5.8,0.6c1.7,0.8,3.2,1.9,4.2,3.5c1.1,1.6,1.8,3.2,2.1,5c0.3,1.6,0.1,2.8-0.6,3.4
			S120.3,103.1,118.9,103.4L118.9,103.4z M107.4,101.7l10-1.9c-0.6-2.2-1.4-3.8-2.4-4.7c-1.1-0.9-2.3-1.3-3.8-1
			c-1.4,0.3-2.4,1-3.1,2.3S107.2,99.5,107.4,101.7z"/>
		<path class="st3" d="M133.3,103l1,5.4c0.2,1.3,0.2,2.3-0.2,3.1c-0.4,0.8-1,1.2-1.8,1.4c-0.8,0.2-1.5-0.1-2.1-0.6
			c-0.6-0.6-1.1-1.5-1.3-2.8l-3.4-18.1c-0.5-2.9,0.1-4.5,1.9-4.9c0.9-0.2,1.6,0.1,2.2,0.7c0.5,0.6,0.9,1.6,1.2,2.9
			c0.4-1.4,0.9-2.6,1.5-3.4c0.6-0.8,1.4-1.3,2.6-1.5s2.3-0.1,3.6,0.4c1.2,0.5,1.9,1.3,2.1,2.4c0.1,0.8,0,1.5-0.3,2.1
			s-0.8,0.9-1.4,1.1c-0.2,0-0.7,0-1.6-0.2s-1.5-0.2-2.1-0.1c-0.8,0.2-1.4,0.5-1.8,1.1c-0.4,0.6-0.7,1.4-0.8,2.4
			c-0.1,1-0.1,2.2,0.1,3.6C132.7,99.3,132.9,101,133.3,103L133.3,103z"/>
		<path class="st3" d="M162.2,98.5c0.3,1.8,0.2,3.4-0.2,4.8s-1.4,2.6-2.7,3.5c-1.3,0.9-3,1.6-5.1,2c-2,0.4-3.7,0.3-5.3-0.1
			c-1.6-0.4-2.8-1.1-3.6-2.1c-0.9-0.9-1.4-1.9-1.6-3c-0.1-0.7,0-1.4,0.3-1.9c0.3-0.6,0.8-0.9,1.5-1.1c0.6-0.1,1.1,0,1.4,0.2
			s0.8,0.7,1.1,1.2c0.8,1.1,1.6,1.8,2.5,2.2s2,0.5,3.4,0.2c1.1-0.2,2-0.7,2.6-1.4c0.6-0.7,0.8-1.4,0.7-2.2c-0.2-1.1-0.7-1.9-1.6-2.3
			s-2.1-0.7-3.9-0.8c-2-0.2-3.6-0.5-5-0.9c-1.3-0.4-2.4-1-3.3-1.9s-1.5-2-1.8-3.5c-0.2-1.3-0.1-2.6,0.3-3.9c0.4-1.3,1.2-2.4,2.4-3.3
			c1.2-0.9,2.6-1.6,4.5-1.9c1.4-0.3,2.7-0.3,3.9-0.2c1.2,0.1,2.2,0.4,3.1,0.9s1.6,1,2.1,1.6c0.5,0.6,0.9,1.3,1,2
			c0.1,0.7,0,1.4-0.3,1.9c-0.3,0.6-0.9,0.9-1.7,1.1c-0.6,0.1-1.1,0-1.6-0.3c-0.5-0.3-1-0.8-1.7-1.5c-0.5-0.6-1.1-1-1.8-1.2
			s-1.4-0.3-2.4-0.1c-1,0.2-1.8,0.6-2.3,1.2c-0.6,0.6-0.8,1.3-0.6,2.1c0.1,0.7,0.5,1.2,1,1.5c0.6,0.3,1.3,0.6,2.2,0.7
			c0.9,0.1,2.1,0.3,3.6,0.4c1.8,0.2,3.3,0.5,4.5,1s2.2,1.1,2.9,1.9C161.5,96.3,162,97.3,162.2,98.5L162.2,98.5z"/>
	</g>
</g>
</svg>
