<?xml version="1.0" encoding="UTF-8"?>
<svg id="Layer_1" data-name="Layer 1" xmlns="http://www.w3.org/2000/svg" viewBox="0 0 200 200">
  <defs>
    <style>
      .cls-1 {
        fill: #ea232b;
      }
    </style>
  </defs>
  <path class="cls-1" d="M100,9.91c49.68,0,90.09,40.41,90.09,90.09s-40.41,90.09-90.09,90.09S9.91,149.68,9.91,100,50.32,9.91,100,9.91M100,1C45.32,1,1,45.32,1,100s44.32,99,99,99,99-44.32,99-99S154.68,1,100,1h0Z"/>
  <g id="VkOdU1">
    <g>
      <path class="cls-1" d="M112.22,32.32c1.99-.12,3.89.11,5.63,1.15.69.41,1.23,1.03,1.93,1.42,4.87-6.05,14.81-5.2,15.93,3.4.06.47-.04,2.42.14,2.57,5.37.43,8.65,5.8,7.37,10.91.81.34,1.67.42,2.5.76,1.8.73,3.02,1.96,4.04,3.59.19.83.66,1.73.82,2.55.44,2.26-.39,5.18-1.31,7.23l-25.34,49.07c-1.93,3.94-5.4,5.77-8.61,8.35-3.51,2.82-4.47,5.99-6.53,9.76-.65,1.19-2.39,4.64-3.4,5.2-2.72,1.48-5.1-1.17-3.97-3.95.84-2.07,2.85-5.52,4.01-7.58,1.66-2.95,3.62-6.06,6.29-8.2,3.18-2.54,5.22-3.16,7.44-6.93,4.18-7.09,8.05-15.44,11.86-22.82,4.44-8.61,8.72-17.32,13.22-25.94.68-1.52,1.2-4.58-.99-5.07-1.85-.42-3.49,1.6-4.35,3-4.21,6.85-7.27,15.18-11.4,22.16-1.97,3.44-6.29,1.57-5.36-2.2l15.4-30.19c1.07-3.23-2.72-5.52-4.83-2.71l-15.52,30.07c-1.87,3.95-6.96,2.04-5.5-2.1l18.1-35.19c1.5-4.07-3.34-5.04-5.31-2.06l-16.79,32.62c-1.84,3.32-6.49,1.41-5.36-2.19l13.82-27.19c.62-3.3-3.07-5.16-5.12-2.19l-20.04,38.79c-1.43,2.53-4.83,2.14-5.37-.86-.27-1.48.77-6.1.99-7.9.2-1.64.83-4.05-.82-5.11-1.11-.72-2.41-.29-3.36.49-2.01,1.66-2.07,6.95-3.09,9.4-1.14,2.76-5.01,2.49-5.6-.64-.23-1.23,1.88-8.77,2.52-10.14,2.57-5.46,10.19-7.32,14.31-2.54.6.69.9,1.4,1.38,2.11.06.09.06.31.27.13s.98-1.71,1.18-2.08c3.8-7.19,7.16-14.74,11.13-21.86,1.23-2.21,2.78-5.13,5.18-6.25l2.55-.82Z"/>
      <path class="cls-1" d="M44.74,149.58l-.43-1.34.44-1.62,15.21-20.16c2.68-2.54,6.38.69,4.45,3.75l-14.86,19.67c-1.35,1.69-3.62,1.35-4.82-.29Z"/>
      <path class="cls-1" d="M81.4,167.01l-.43-1.34.44-1.62,15.21-20.16c2.68-2.54,6.38.69,4.45,3.75l-14.86,19.67c-1.35,1.69-3.62,1.35-4.82-.29Z"/>
      <path class="cls-1" d="M92.79,111.79c-3.75,7.68-12.23,12.13-20.7,11.12-2.38-.29-5.52-.89-4.76-4.1.74-3.16,4.16-1.72,6.22-1.56,16.5,1.23,21.49-22.25,5.9-27.83-1.34-.48-4.07-.73-4.92-1.77-1.46-1.77-.55-4.14,1.61-4.66,1.72-.42,6.3,1.2,7.92,2.04,9.38,4.91,13.38,17.25,8.74,26.76Z"/>
      <path class="cls-1" d="M71.15,94.99c9.85-4.27,16.89,9.85,8.06,15.24-10.55,6.44-19.13-10.44-8.06-15.24ZM73.31,100.36c-3.29,1.68-.74,6.96,2.85,4.94,2.88-1.62.5-6.65-2.85-4.94Z"/>
      <g>
        <path class="cls-1" d="M52.41,67.1c1.37.64,2.01,2.33,1.4,3.72-.5,1.14-2.62,2.39-3.64,3.28-12.72,11.17-17.13,29.11-9.82,44.69.92,1.96,3.72,5.71,3.96,7.45.35,2.53-3.18,4.23-5.11,1.97-5.15-6.03-8.09-17.44-8.14-25.27-.08-12.97,6.66-27.78,17.61-35.11,1.11-.74,2.41-1.37,3.74-.75Z"/>
        <path class="cls-1" d="M53.82,120.88c-.69,1.49-2.78,1.84-4.12,1.08-1.06-.61-2.01-2.36-2.61-3.43-6.56-11.82-5.25-26.25,3.63-36.4,1.24-1.42,4.49-4.71,6.14-5.37,2.25-.9,4.65,1.19,3.83,3.55-.49,1.42-2.66,2.64-3.76,3.67-8.21,7.65-10.39,19.8-5.7,30,.67,1.45,2.29,3.49,2.7,4.78.15.49.11,1.66-.11,2.13Z"/>
        <path class="cls-1" d="M61.81,96.52c-2.24,4.47-1.94,9.08.32,13.49.48.94,1.18,1.6,1.41,2.7.58,2.74-2.86,4.58-4.86,2.47-.5-.53-1.11-1.49-1.48-2.14-4.87-8.57-3.08-18.95,4.27-25.39,1.58-1.39,3.94-3.52,5.98-1.75,1.86,1.61,1.21,3.45-.41,4.84-2.38,2.04-3.73,2.77-5.24,5.77Z"/>
      </g>
      <g>
        <path class="cls-1" d="M142.7,138.11c-1.27-.82-1.68-2.58-.89-3.88.65-1.06,2.92-2.02,4.05-2.77,14.1-9.38,20.85-26.57,15.69-42.98-.65-2.06-2.93-6.15-2.94-7.91-.01-2.55,3.72-3.77,5.32-1.28,4.3,6.67,5.7,18.37,4.7,26.13-1.64,12.87-10.3,26.65-22.13,32.45-1.19.59-2.57,1.04-3.8.24Z"/>
        <path class="cls-1" d="M148.46,84.62c.89-1.38,3-1.46,4.23-.52.97.74,1.68,2.61,2.13,3.75,4.93,12.59,1.71,26.71-8.44,35.59-1.42,1.24-5.08,4.07-6.8,4.51-2.35.6-4.45-1.8-3.32-4.03.67-1.34,2.98-2.26,4.22-3.14,9.16-6.49,12.94-18.24,9.64-28.97-.47-1.53-1.81-3.77-2.04-5.1-.09-.51.11-1.66.39-2.1Z"/>
        <path class="cls-1" d="M137.3,107.7c2.82-4.13,3.13-8.74,1.48-13.42-.35-.99-.96-1.74-1.04-2.86-.21-2.79,3.44-4.15,5.15-1.8.43.59.9,1.63,1.18,2.32,3.69,9.14.53,19.19-7.61,24.59-1.75,1.16-4.37,2.96-6.16.94-1.63-1.84-.75-3.58,1.05-4.74,2.63-1.71,4.07-2.25,5.96-5.02Z"/>
      </g>
      <path class="cls-1" d="M96.89,143.43c4.01-2.26,6.59,4.59,1.69,5.34-2.72.41-4.29-3.87-1.69-5.34Z"/>
    </g>
  </g>
</svg>