<?xml version="1.0" encoding="UTF-8"?>
<svg id="Layer_1" data-name="Layer 1" xmlns="http://www.w3.org/2000/svg" xmlns:xlink="http://www.w3.org/1999/xlink" viewBox="0 0 200 200">
  <defs>
    <style>
      .cls-1 {
        fill: none;
      }

      .cls-2 {
        fill: #e32513;
      }

      .cls-3 {
        fill: #ea232b;
      }

      .cls-4 {
        clip-path: url(#clippath);
      }
    </style>
    <clipPath id="clippath">
      <path class="cls-1" d="M-120,1c-54.68,0-99,44.32-99,99s44.32,99,99,99S-21,154.68-21,100-65.32,1-120,1h0Z"/>
    </clipPath>
  </defs>
  <path class="cls-3" d="M100,9.91c49.68,0,90.09,40.41,90.09,90.09s-40.41,90.09-90.09,90.09S9.91,149.68,9.91,100,50.32,9.91,100,9.91M100,1C45.32,1,1,45.32,1,100s44.32,99,99,99,99-44.32,99-99S154.68,1,100,1h0Z"/>
  <g>
    <g>
      <path class="cls-2" d="M86.01,66.05c.15.15.36.24.58.24h8.97c.46,0,.82-.37.82-.82,0-.46-.37-.82-.82-.82h-8.97c-.46,0-.82.37-.82.82,0,.23.09.43.24.58Z"/>
      <path class="cls-2" d="M129.62,126.31c.15.15.36.24.58.24h8.97c.46,0,.82-.37.82-.82,0-.46-.37-.82-.82-.82h-8.97c-.46,0-.82.37-.82.82,0,.23.09.43.24.58Z"/>
      <path class="cls-2" d="M98.38,57.91c0,.21.08.42.24.58l6.34,6.34c.32.32.84.32,1.17,0,.32-.32.32-.84,0-1.17l-6.34-6.34c-.32-.32-.84-.32-1.17,0-.16.16-.24.37-.24.58Z"/>
      <path class="cls-2" d="M76.75,127.36c-1.18,0-2.14.96-2.14,2.14s.96,2.14,2.14,2.14c.95,0,1.75-.62,2.03-1.48h11.7c.28.86,1.08,1.48,2.03,1.48,1.18,0,2.14-.96,2.14-2.14s-.96-2.14-2.14-2.14c-.95,0-1.75.62-2.03,1.48h-11.7c-.28-.86-1.08-1.48-2.03-1.48ZM75.93,129.5c0-.45.37-.82.82-.82s.82.37.82.82-.37.82-.82.82-.82-.37-.82-.82ZM93.34,129.5c0,.45-.37.82-.82.82s-.82-.37-.82-.82.37-.82.82-.82.82.37.82.82Z"/>
      <path class="cls-2" d="M108.4,66.94h-4.7l-9.21-9.21h-10.1c-.27-.84-1.07-1.46-2-1.46-1.16,0-2.1.94-2.1,2.1s.94,2.1,2.1,2.1c.93,0,1.73-.61,2-1.46h9.56l9.21,9.21h5.24c.27.84,1.07,1.46,2,1.46,1.16,0,2.1-.94,2.1-2.1s-.94-2.1-2.1-2.1c-.93,0-1.73.61-2,1.46ZM81.58,58.38c0-.44.36-.81.81-.81s.81.36.81.81-.36.81-.81.81-.81-.36-.81-.81ZM111.2,67.58c0,.44-.36.81-.81.81s-.81-.36-.81-.81.36-.81.81-.81.81.36.81.81Z"/>
      <path class="cls-2" d="M114.03,127.4c-1.16,0-2.1.94-2.1,2.1,0,1.16.94,2.1,2.1,2.1.93,0,1.73-.61,2-1.46h5.24s9.21-9.21,9.21-9.21h9.56c.27.84,1.07,1.46,2,1.46,1.16,0,2.1-.94,2.1-2.1s-.94-2.1-2.1-2.1c-.93,0-1.73.61-2,1.46h-10.1s-9.21,9.21-9.21,9.21h-4.7c-.27-.84-1.07-1.46-2-1.46ZM142.03,121.1c-.44,0-.81-.36-.81-.81,0-.44.36-.81.81-.81s.81.36.81.81-.36.81-.81.81ZM114.03,128.7c.44,0,.81.36.81.81s-.36.81-.81.81-.81-.36-.81-.81c0-.44.36-.81.81-.81Z"/>
      <g>
        <rect class="cls-2" x="55.33" y="54" width="7.08" height="7.08"/>
        <path class="cls-2" d="M69.3,54.22h-1.62v-5.5h-17.64v17.64h17.64v-5.5h1.62v.4h2.1v-2.1h-2.1v.4h-1.62v-1.36h1.62v.4h2.1v-2.1h-2.1v.4h-1.62v-1.36h1.62v.4h2.1v-2.1h-2.1v.4ZM65.07,63.75h-12.41v-12.41h12.41v12.41Z"/>
        <polygon class="cls-2" points="48.18 59.16 46.08 59.16 46.08 61.26 48.18 61.26 48.18 60.86 50.05 60.86 50.05 59.56 48.18 59.56 48.18 59.16"/>
        <polygon class="cls-2" points="48.18 56.49 46.08 56.49 46.08 58.59 48.18 58.59 48.18 58.2 50.05 58.2 50.05 56.89 48.18 56.89 48.18 56.49"/>
        <polygon class="cls-2" points="48.18 53.82 46.08 53.82 46.08 55.93 48.18 55.93 48.18 55.53 50.05 55.53 50.05 54.22 48.18 54.22 48.18 53.82"/>
        <polygon class="cls-2" points="55.81 48.72 55.81 46.74 56.21 46.74 56.21 44.64 54.11 44.64 54.11 46.74 54.5 46.74 54.5 48.72 55.81 48.72"/>
        <polygon class="cls-2" points="63.23 48.72 63.23 46.74 63.63 46.74 63.63 44.64 61.52 44.64 61.52 46.74 61.92 46.74 61.92 48.72 63.23 48.72"/>
        <polygon class="cls-2" points="58.21 48.72 59.52 48.72 59.52 46.74 59.92 46.74 59.92 44.64 57.82 44.64 57.82 46.74 58.21 46.74 58.21 48.72"/>
      </g>
      <path class="cls-2" d="M94.4,90.94h-13.78v-10.67h18.74v-10.67h-18.74c-6.44,0-10.59,3.9-10.59,10.67v10.67c0,6.95,4.32,10.59,10.59,10.59h13.78v10.67h-13.13v10.59h13.13c6.86,0,10.76-3.73,10.76-10.59v-10.67c0-6.44-4.24-10.59-10.76-10.59Z"/>
      <path class="cls-2" d="M109.59,80.27v42.53h10.59v-21.26h31.85v21.26h10.67v-42.53c0-6.01-4.49-10.67-10.67-10.67h-31.85c-6.27,0-10.59,4.07-10.59,10.67ZM152.04,90.94h-31.85v-10.67h31.85v10.67Z"/>
      <g>
        <polygon class="cls-2" points="41.48 124.08 45.06 124.33 46.13 118.73 46.58 124.33 49.54 124.08 50.57 121.7 50.86 124.08 65.58 124.62 66.37 119.61 67.23 124.62 76.03 124.08 76.03 115.13 41.48 115.13 41.48 124.08"/>
        <g>
          <path class="cls-2" d="M54.51,75.06c.45,0,.82-.37.82-.82s-.37-.82-.82-.82-.82.37-.82.82.37.82.82.82Z"/>
          <path class="cls-2" d="M53.21,106.11c-.44,0-.81.36-.81.81s.36.81.81.81.81-.36.81-.81-.36-.81-.81-.81Z"/>
          <path class="cls-2" d="M54.51,90.83c.45,0,.82-.37.82-.82s-.37-.82-.82-.82-.82.37-.82.82.37.82.82.82Z"/>
          <circle class="cls-2" cx="62.42" cy="78.91" r=".81"/>
          <path class="cls-2" d="M73.13,103.35h-6.15v-29.55c0-2.33-1.89-4.21-4.21-4.21h-8.04c-2.33,0-4.21,1.89-4.21,4.21v29.55h-6.13c-1.6,0-2.9,1.3-2.9,2.9v7.43h34.56v-7.43c0-1.6-1.3-2.9-2.9-2.9ZM52.37,74.24c0-1.18.96-2.14,2.14-2.14s2.14.96,2.14,2.14c0,.95-.62,1.75-1.48,2.03v11.7c.86.28,1.48,1.08,1.48,2.03,0,1.18-.96,2.14-2.14,2.14s-2.14-.96-2.14-2.14c0-.95.62-1.75,1.48-2.03v-11.7c-.86-.28-1.48-1.08-1.48-2.03ZM60.74,109.6c0,.46-.37.82-.82.82-.46,0-.82-.37-.82-.82v-8.97c0-.23.09-.43.24-.58s.36-.24.58-.24c.46,0,.82.37.82.82v8.97ZM63.07,80.91v10.1l-9.21,9.21v4.7c.84.27,1.45,1.07,1.45,2,0,1.16-.94,2.1-2.1,2.1s-2.1-.94-2.1-2.1c0-.93.61-1.73,1.45-2v-5.24l9.21-9.21v-9.56c-.84-.27-1.45-1.07-1.45-2,0-1.16.94-2.1,2.1-2.1s2.1.94,2.1,2.1c0,.93-.61,1.73-1.45,2Z"/>
        </g>
      </g>
    </g>
    <g>
      <path class="cls-2" d="M46.06,155.42h-1.76v-12.52h-3.36v-1.61h8.47v1.61h-3.35v12.52Z"/>
      <path class="cls-2" d="M50.8,141.29h7.59v1.61h-5.83v3.95h5.66v1.61h-5.66v5.34h5.83v1.61h-7.59v-14.13Z"/>
      <path class="cls-2" d="M70.86,143.99c-1.01-.9-2.4-1.39-3.73-1.39-3.17,0-5.59,2.64-5.59,5.77s2.4,5.74,5.55,5.74c1.39,0,2.72-.52,3.77-1.46v2.08c-1.09.64-2.47.99-3.71.99-4.03,0-7.37-3.21-7.37-7.29s3.36-7.44,7.52-7.44c1.24,0,2.49.3,3.56.96v2.04Z"/>
      <path class="cls-2" d="M81.29,146.99v-5.7h1.76v14.13h-1.76v-6.78h-6.73v6.78h-1.76v-14.13h1.76v5.7h6.73Z"/>
      <path class="cls-2" d="M85.44,140.62l10.61,11.11v-10.44h1.76v14.71l-10.61-11.11v10.53h-1.76v-14.81Z"/>
      <path class="cls-2" d="M114.13,148.36c0,4.2-3.32,7.37-7.4,7.37s-7.4-3.17-7.4-7.37,3.35-7.37,7.4-7.37,7.4,3.32,7.4,7.37ZM112.37,148.36c0-3.11-2.32-5.72-5.64-5.72s-5.64,2.61-5.64,5.72,2.59,5.72,5.64,5.72,5.64-2.49,5.64-5.72Z"/>
      <path class="cls-2" d="M117.6,153.81h4.29v1.61h-6.05v-14.13h1.76v12.52Z"/>
      <path class="cls-2" d="M136.86,148.36c0,4.2-3.32,7.37-7.4,7.37s-7.4-3.17-7.4-7.37,3.35-7.37,7.4-7.37,7.4,3.32,7.4,7.37ZM135.1,148.36c0-3.11-2.32-5.72-5.64-5.72s-5.64,2.61-5.64,5.72,2.59,5.72,5.64,5.72,5.64-2.49,5.64-5.72Z"/>
      <path class="cls-2" d="M151.45,148.3v.56c0,3.88-2.74,6.86-6.69,6.86s-7.14-3.41-7.14-7.33,3.26-7.4,7.33-7.4c2.19,0,4.37.99,5.75,2.74l-1.24,1.18c-1.01-1.39-2.72-2.31-4.44-2.31-3.17,0-5.64,2.57-5.64,5.74,0,2.96,2.44,5.77,5.49,5.77,2.19,0,4.55-1.89,4.63-4.2h-3.65v-1.61h5.6Z"/>
      <path class="cls-2" d="M151.73,141.29h2.02l3.47,6.04,3.47-6.04h2.02l-4.61,7.98v6.15h-1.76v-6.15l-4.61-7.98Z"/>
    </g>
  </g>
  <g class="cls-4">
    <g>
      <path class="cls-3" d="M-119.47,98.39c16.6,0,126.41,0,143.01,0,6.36,0,9.09,1.87,11.38,7.7,2.95,7.51,5.92,15,8.85,22.51,2.25,5.77.48,9.82-5.18,12.49-1.11.52-2.19,1.57-2.8,2.65-3.3,5.83-6.5,11.72-9.64,17.65-3.59,6.76-9.34,10.39-16.79,10.45-23.76.21-140.73.2-164.49,0-7.46-.06-13.19-3.73-16.78-10.47-3.15-5.92-6.33-11.82-9.66-17.64-.66-1.15-1.88-2.21-3.1-2.79-5.19-2.44-7.06-6.64-4.97-12.04,3.07-7.94,6.22-15.86,9.37-23.78,1.88-4.74,4.89-6.72,10.32-6.73,16.83-.03,33.65,0,50.48-.01ZM-176.85,141.76c3.29,6.05,6.35,11.49,9.23,17.03,2.81,5.39,7.26,8.1,13.2,8.13,23.32.08,139.85.06,163.16.01,4.15,0,8.3-1.14,10.58-4.61,4.25-6.47,7.84-13.37,11.98-20.56h-208.16ZM-119.47,136.61c20.13,0,133.47.02,153.61-.02,5.06,0,6.51-2.22,4.68-6.9-2.77-7.09-5.74-14.11-8.29-21.28-1.31-3.68-3.42-5.11-7.32-5.1-32.98.09-159.18.05-192.16.05-.68,0-1.51-.22-2.02.09-1.56.92-3.75,1.73-4.36,3.15-3.46,8.03-6.57,16.22-9.71,24.38-1.08,2.8.22,4.97,3.15,5.5,1.11.2,2.27.13,3.4.13,19.68,0,39.35,0,59.03,0Z"/>
      <path class="cls-3" d="M-119.67,131.22c-15.46,0-30.92.05-46.37-.05-2.33-.02-4.79-.4-6.95-1.23-3.19-1.23-3.88-3.38-2.67-6.62,1.15-3.08,2.55-6.09,3.57-9.21,1.05-3.24,3.23-4.82,6.45-5.19,1.24-.14,2.49-.18,3.74-.18,28.3,0,149.82-.01,178.12,0,7.12,0,8.32.83,10.85,7.35.95,2.43,1.97,4.84,2.87,7.29,1.19,3.24.47,5.4-2.73,6.61-2.17.82-4.63,1.18-6.96,1.2-15.57.1-124.36.05-139.93.05ZM25.3,125.21c-1.04-2.64-2.25-5-2.88-7.5-.84-3.33-2.83-4.03-5.98-4.01-21.94.11-137.09.06-159.02.06-6.93,0-13.87-.08-20.8.07-1.28.03-3.19.64-3.68,1.57-1.6,3.09-2.69,6.46-3.96,9.69,3.24,1.59,192.48,1.72,196.32.12Z"/>
    </g>
  </g>
</svg>