<?xml version="1.0" encoding="UTF-8"?>
<svg id="Layer_1" data-name="Layer 1" xmlns="http://www.w3.org/2000/svg" viewBox="0 0 200 200">
  <defs>
    <style>
      .cls-1, .cls-2, .cls-3 {
        fill: #ea232b;
      }

      .cls-2 {
        font-size: 18.6px;
      }

      .cls-2, .cls-3 {
        font-family: MyriadPro-Bold, 'Myriad Pro';
        font-weight: 700;
      }

      .cls-3 {
        font-size: 18.6px;
      }

      .cls-4 {
        letter-spacing: -.08em;
      }

      .cls-5 {
        letter-spacing: -.08em;
      }

      .cls-6 {
        letter-spacing: -.05em;
      }

      .cls-7 {
        letter-spacing: -.05em;
      }

      .cls-8 {
        letter-spacing: -.05em;
      }

      .cls-9 {
        letter-spacing: -.05em;
      }

      .cls-10 {
        letter-spacing: -.05em;
      }
    </style>
  </defs>
  <path class="cls-1" d="M100,9.91c49.68,0,90.09,40.41,90.09,90.09s-40.41,90.09-90.09,90.09S9.91,149.68,9.91,100,50.32,9.91,100,9.91M100,1C45.32,1,1,45.32,1,100s44.32,99,99,99,99-44.32,99-99S154.68,1,100,1h0Z"/>
  <g>
    <g id="x6VGNn">
      <g>
        <path class="cls-1" d="M98.7,128.09c.35.42.39,1.19.16,1.67-.48.98-1.84.99-2.77.95l-.1-3.06c.79-.13,2.15-.24,2.72.44Z"/>
        <path class="cls-1" d="M86.2,131.21l-.19-3.05c1.1-.23,2.94-.36,3.05,1.16.13,1.68-1.58,1.86-2.86,1.88Z"/>
        <polygon class="cls-1" points="109.03 132.03 106.59 132.03 107.86 127.65 109.03 132.03"/>
        <path class="cls-1" d="M171.94,119.69h-19.17v4.89l-10.4-1.38,2.86-6.12,6.71-6.24,1.19-9.31,4.52-8.13-1.78-9.24,1.78-9.17-4.52-8.13-1.11-9.18-6.83-6.42-3.96-8.53-8.53-3.96-6.33-6.82-9.2-1.09-8.38-4.57-8.97,1.74-9.25-1.72-8.23,4.52-9.18,1.12-6.43,6.82-8.45,3.99-3.93,8.4-6.82,6.43-1.2,9.3-4.46,8.19,1.74,9.07-1.74,9.17,4.46,8.19,1.2,9.3,6.82,6.43,2.81,6.06-9.58,1.28v-4.89h-19.27l11.42,10.55-11.31,10.55h19.17v6.83c4.33-.58,8.67-1.19,13.01-1.72,11.51-1.42,23.27-2.9,34.85-3.48,8.79-.44,17.65.52,26.41,1.43,10.34,1.07,20.64,2.43,30.94,3.77v-6.83h19.17l-11.32-10.45,11.32-10.65ZM56.86,92.7c-5.22-26.83,15.02-51.65,42.16-52.19l1.8.08c27.51.64,47.59,26.39,41.52,53.34-2.5,11.07-9.54,21.03-19.11,27.08-9.52-.87-19.04-2.1-28.63-1.61-6.16.32-12.29,1.19-18.43,1.61-9.89-6.35-17.06-16.7-19.31-28.3ZM70.18,138.95l-2.74.32-2.55-7.85-.52,8.25-2.84.3-3.99-10.69,2.65-.3,2.66,8.15.52-8.56c.46,0,2.45-.5,2.7-.21l2.6,7.85.41-8.46,2.44-.26-1.34,11.46ZM79.97,137.9l-1.19-2.69-3.03.18-.59,2.95-2.54.22,2.25-11.26.25-.16,3.09-.19,4.4,10.69-2.65.27ZM89.86,137.19c-.62-.9-.87-3.62-1.86-4.06-.57-.26-1.12-.1-1.71-.08l.2,4.38-2.45.1-.67-10.91c1.94-.46,5.99-1.11,7.47.55,1.17,1.32.83,3.23-.43,4.35-.13.11-.71.35-.56.51,1.76.82,1.77,3.42,2.55,5l-2.55.16ZM99.55,136.78c-.29-.19-.81-2.72-1.04-3.24-.49-1.12-1.28-1.02-2.37-.99l.15,4.38-2.55.1-.29-11c1.89-.33,5.36-.79,6.97.39,1.75,1.29,1.36,4.41-.76,5.1l.77.61c.98,1.36,1.18,3.12,1.68,4.69l-2.55-.05ZM110.17,136.81l-.78-2.85-3.19.02-.83,2.84c-.1.04-.21-.1-.25-.1h-2.29l3.57-11.05,3.28.1,3.25,11.15-2.74-.11ZM123.51,137.54l-2.7-.2c-1.29-2.79-2.8-5.52-3.72-8.46l-.51,8.26-2.34-.21.71-11.11,3.04.22c1.14,2.69,2.66,5.22,3.48,8.04l.41-7.75,2.35.1-.71,11.11ZM134.21,129.78l-3.05-.3-1.02,8.87-2.55-.31,1.12-8.97-2.96-.31.2-2.14,8.56,1.02-.31,2.13ZM140.29,135.3l-.88,4.58-2.45-.41.78-4.52-2.21-7.05,2.83.48,1.04,4.97,2.85-4.24,2.75.46-4.73,5.72Z"/>
        <path class="cls-1" d="M75.9,133.56c.61-.23,1.47-.1,2.09-.2.1-.02.22-.06.25-.16.08-.32-1.54-3.45-1.52-4.12l-.18.28-.64,4.2Z"/>
      </g>
    </g>
    <g>
      <polygon class="cls-1" points="99.53 55.88 106.38 50.9 103.76 58.95 110.61 63.93 102.14 63.93 99.53 71.99 96.91 63.93 88.44 63.93 95.29 58.95 92.67 50.9 99.53 55.88"/>
      <polygon class="cls-1" points="119.23 60.92 123.47 57.84 121.85 62.82 126.08 65.9 120.85 65.9 119.23 70.88 117.61 65.9 112.37 65.9 116.61 62.82 114.99 57.84 119.23 60.92"/>
      <polygon class="cls-1" points="79.82 60.92 84.06 57.84 82.44 62.82 86.68 65.9 81.44 65.9 79.82 70.88 78.21 65.9 72.97 65.9 77.2 62.82 75.59 57.84 79.82 60.92"/>
    </g>
    <g>
      <polygon class="cls-1" points="99.53 159.9 106.38 154.92 103.76 162.98 110.61 167.96 102.14 167.96 99.53 176.01 96.91 167.96 88.44 167.96 95.29 162.98 92.67 154.92 99.53 159.9"/>
      <polygon class="cls-1" points="119.23 164.94 123.47 161.86 121.85 166.84 126.08 169.92 120.85 169.92 119.23 174.9 117.61 169.92 112.37 169.92 116.61 166.84 114.99 161.86 119.23 164.94"/>
      <polygon class="cls-1" points="79.82 164.94 84.06 161.86 82.44 166.84 86.68 169.92 81.44 169.92 79.82 174.9 78.21 169.92 72.97 169.92 77.2 166.84 75.59 161.86 79.82 164.94"/>
    </g>
    <text class="cls-3" transform="translate(65.47 93.71)"><tspan class="cls-8" x="0" y="0">LIF</tspan><tspan class="cls-6" x="21.82" y="0">E</tspan><tspan class="cls-7" x="30.91" y="0">TIME</tspan></text>
    <text class="cls-2" transform="translate(70.69 112.77)"><tspan class="cls-9" x="0" y="0">M</tspan><tspan class="cls-5" x="14.8" y="0">O</tspan><tspan class="cls-4" x="26.69" y="0">T</tspan><tspan class="cls-10" x="35.41" y="0">OR</tspan></text>
  </g>
</svg>